<?xml version="1.0" encoding="utf-8"?>
<!-- Generator: Adobe Illustrator 24.1.3, SVG Export Plug-In . SVG Version: 6.00 Build 0)  -->
<svg version="1.1" id="Capa_1" xmlns="http://www.w3.org/2000/svg" xmlns:xlink="http://www.w3.org/1999/xlink" x="0px" y="0px"
	 viewBox="0 0 85.2 88.8" style="enable-background:new 0 0 85.2 88.8;" xml:space="preserve">
<style type="text/css">
	.st0{fill:#F9B30B;}
</style>
<g>
	<path class="st0" d="M6.8,32.1c0-1.7,1.1-3.3,2.7-3.9V50h2.7V15.6c0-2.3,1.8-4.1,4.1-4.1h37.1V8.7H16.5c-3.8,0-6.9,3.1-6.9,6.9v9.8
		c-3.2,0.7-5.5,3.5-5.5,6.7v16.5h2.7V32.1z"/>
	<path class="st0" d="M82.4,74.7H81V45.8h-2.7v28.9H54.1c-1.6,0-3.2,0.6-4.3,1.8c-0.6,0.6-1.5,1-2.3,1h-9.9c-0.9,0-1.7-0.3-2.3-1
		c-1.1-1.1-2.7-1.8-4.3-1.8H6.8v-5.5H4.1v5.5H2.7c-0.8,0-1.4,0.6-1.4,1.4v4.1c0,3,2.5,5.5,5.5,5.5h71.5c3,0,5.5-2.5,5.5-5.5V76
		C83.8,75.3,83.2,74.7,82.4,74.7z M81.1,80.2c0,1.5-1.2,2.7-2.7,2.7H6.8c-1.5,0-2.7-1.2-2.7-2.7v-2.7H31c0.9,0,1.7,0.3,2.3,1
		c1.1,1.1,2.7,1.8,4.3,1.8h9.9c1.6,0,3.2-0.6,4.3-1.8c0.6-0.6,1.5-1,2.3-1H81L81.1,80.2L81.1,80.2z"/>
	<path class="st0" d="M72.8,45.8h2.7v26.1h-2.7V45.8z"/>
	<path class="st0" d="M9.6,69.2h2.7v2.7H9.6V69.2z"/>
	<path class="st0" d="M16.5,14.2h2.7v2.7h-2.7V14.2z"/>
	<path class="st0" d="M21.9,14.2h2.7v2.7h-2.7V14.2z"/>
	<path class="st0" d="M27.4,14.2h2.7v2.7h-2.7V14.2z"/>
	<path class="st0" d="M16.5,19.7h34.4v2.7H16.5V19.7z"/>
	<path class="st0" d="M37.6,29.3c4.4-2,9.6-1.6,13.6,1.2l1.6-2.2c-5.7-4-13.3-4-19,0l1.6,2.2C36.1,30.1,36.8,29.7,37.6,29.3
		L37.6,29.3z"/>
	<path class="st0" d="M51.6,72.5c3-3.2,5.4-6.9,7.1-10.9l-2.5-1c-1.5,3.7-3.7,7.1-6.5,10L51.6,72.5z"/>
	<path class="st0" d="M82.4,19.7H81v-4.1c0-6.8-5.5-12.4-12.4-12.4S56.3,8.7,56.3,15.6c0,0.8,0.6,1.4,1.4,1.4h5.5
		c0.8,0,1.4-0.6,1.4-1.4c0-2.3,1.8-4.1,4.1-4.1s4.1,1.8,4.1,4.1v4.1H54.9c-0.8,0-1.4,0.6-1.4,1.4v12.5c-3.5-1.8-7.3-2.7-11.2-2.7
		h-0.2c-4.6,0-9.1,1.4-12.9,4l1.5,2.3C34,34.9,38,33.7,42,33.7h0.2c4,0,7.8,1.1,11.2,3.1V40c-3.2-2.4-7.2-3.7-11.2-3.7H42
		c-5.8,0-11.1,2.9-14.4,7.6l-0.7,0.9l2.3,1.6l0.7-0.9c2.8-4,7.3-6.4,12.1-6.4h0.2c5.1,0,9.9,2.4,12.6,6.3c1,1.4,1.7,2.9,2.2,4.5
		c0.7,2.6,0.7,5.3,0,7.9l2.6,0.7c0.9-3.1,0.9-6.3,0-9.3c-0.5-1.9-1.4-3.7-2.6-5.4c-0.2-0.3-0.4-0.5-0.6-0.7h25.8
		c0.8,0,1.4-0.6,1.4-1.4V21.1C83.8,20.3,83.2,19.7,82.4,19.7L82.4,19.7z M68.7,8.7c-3.3,0-6.1,2.3-6.7,5.5h-2.8
		C60,8.9,64.8,5.3,70.1,6c4.7,0.7,8.3,4.7,8.3,9.5v4.1h-2.7v-4.1C75.5,11.8,72.5,8.7,68.7,8.7L68.7,8.7z M81.1,40.3H56.3V22.4H81
		L81.1,40.3L81.1,40.3z"/>
	<path class="st0" d="M72.6,30.5c0.1-0.4,0.2-0.8,0.2-1.2c0-2.3-1.8-4.1-4.1-4.1s-4.1,1.8-4.1,4.1c0,0.4,0.1,0.8,0.2,1.2
		c-1.8,1.3-2.9,3.4-2.9,5.6c0,0.8,0.6,1.4,1.4,1.4h11c0.8,0,1.4-0.6,1.4-1.4C75.6,33.9,74.5,31.8,72.6,30.5z M64.8,34.8
		c0.4-1.1,1.2-2,2.3-2.4c0.7-0.3,1-1.1,0.8-1.8c-0.1-0.1-0.1-0.3-0.2-0.4c-0.2-0.2-0.3-0.6-0.3-0.9c0-0.8,0.6-1.4,1.4-1.4
		s1.4,0.6,1.4,1.4c0,0.3-0.1,0.6-0.3,0.9c-0.5,0.6-0.4,1.4,0.1,1.9c0.1,0.1,0.2,0.2,0.4,0.2c1.1,0.4,1.9,1.3,2.3,2.4L64.8,34.8
		L64.8,34.8z"/>
	<path class="st0" d="M2.7,66.4h27.9l-0.2,0.2l1.9,1.9l2.1-2.1h3.9l-3.9,3.9l1.9,1.9l6.9-6.9c2.7-2.7,4.7-5.9,5.8-9.5
		c0.6-2,0.3-4.1-1-5.8c-1.2-1.7-3.2-2.7-5.3-2.7H42c-2.8,0-5.3,1.8-6.2,4.5c-0.1,0.3-0.2,0.5-0.3,0.8h-3.1c0.4-0.5,0.6-1.1,0.9-1.7
		c1.3-3.8,4.9-6.4,8.8-6.4h0.7c3,0,5.8,1.4,7.5,3.8c1.8,2.4,2.3,5.4,1.4,8.2c-1.3,4-3.5,7.7-6.5,10.6l-5.1,5.1l1.9,1.9l5.1-5.1
		c3.3-3.3,5.7-7.3,7.1-11.7c1.2-3.6,0.5-7.6-1.8-10.7c-2.3-3.1-5.9-4.9-9.7-4.9H42c-5.1,0-9.7,3.3-11.4,8.3c-0.2,0.6-0.6,1.2-1,1.6
		l-1,1H2.7c-0.8,0-1.4,0.6-1.4,1.4v11C1.3,65.8,1.9,66.4,2.7,66.4L2.7,66.4z M42.2,50.1h0.7c1.2,0,2.4,0.6,3.1,1.6
		c0.7,0.9,0.9,2.2,0.6,3.3c-0.8,2.6-2.2,5-3.9,7.1v-4.9c0.6-1.2,1.1-2.4,1.5-3.7c0-0.2-0.1-0.4-0.2-0.4l0,0l-2.6-0.4h-2.6
		C39.2,51.1,40.6,50.1,42.2,50.1L42.2,50.1z M4.1,55.4h35.7v8.2H4.1V55.4z"/>
	<path class="st0" d="M6.8,58.2h2.7v2.7H6.8V58.2z"/>
	<path class="st0" d="M12.3,58.2H15v2.7h-2.7V58.2z"/>
	<path class="st0" d="M17.8,58.2h2.7v2.7h-2.7V58.2z"/>
	<path class="st0" d="M23.3,58.2H26v2.7h-2.7V58.2z"/>
</g>
</svg>
