<?xml version="1.0" encoding="utf-8"?>
<!-- Generator: Adobe Illustrator 24.1.3, SVG Export Plug-In . SVG Version: 6.00 Build 0)  -->
<svg version="1.1" id="Capa_1" xmlns="http://www.w3.org/2000/svg" xmlns:xlink="http://www.w3.org/1999/xlink" x="0px" y="0px"
	 viewBox="0 0 94 94" style="enable-background:new 0 0 94 94;" xml:space="preserve">
<style type="text/css">
	.st0{fill:#F9B200;}
</style>
<g>
	<g id="outline_1_">
		<path class="st0" d="M47,53c4.1,0,7.5-3.4,7.5-7.5S51.1,38,47,38s-7.5,3.4-7.5,7.5C39.5,49.6,42.9,53,47,53z M47,41
			c2.5,0,4.5,2,4.5,4.5c0,2.5-2,4.5-4.5,4.5c-2.5,0-4.5-2-4.5-4.5C42.5,43,44.5,41,47,41z"/>
		<circle class="st0" cx="47" cy="45.5" r="2.1"/>
		<path class="st0" d="M17.8,91.9h58.4c2.9,0,5.2-2.3,5.2-5.2V58.2c0-2.9-2.3-5.2-5.2-5.2H63.4c5.8-4.8,9.1-12,9.1-19.5v-5.4
			c2.9-3.1,4.5-7.2,4.5-11.4V3.6c0-0.8-0.7-1.5-1.5-1.5H18.6c-0.8,0-1.5,0.7-1.5,1.5v13.1c0,4.2,1.6,8.3,4.5,11.4v5.4
			c0,7.5,3.3,14.6,9.1,19.5H17.8c-2.9,0-5.2,2.3-5.2,5.2v28.4C12.6,89.6,14.9,91.9,17.8,91.9z M78.4,76.9c0,0.8-0.7,1.5-1.5,1.5
			c-0.8,0-1.5-0.7-1.5-1.5v-9c0-0.8,0.7-1.5,1.5-1.5c0.8,0,1.5,0.7,1.5,1.5V76.9z M24.5,29h44.9v3H24.5V29z M20.1,5.1h53.9v6H20.1
			V5.1z M20.1,14.1h53.9v2.6c0,3.5-1.3,6.8-3.6,9.3H23.7c-2.3-2.5-3.6-5.9-3.6-9.3V14.1z M24.6,35h44.8
			c-0.8,12.4-11.5,21.7-23.9,20.9C34.3,55.2,25.3,46.3,24.6,35L24.6,35z M47,59c4.2,0,8.3-1,12-3h17.2c1.2,0,2.2,1,2.2,2.2v5.5
			c-2.3-0.8-4.9,0.4-5.7,2.7c-0.2,0.5-0.3,1-0.3,1.5v9c0,2.5,2,4.5,4.5,4.5c0.5,0,1-0.1,1.5-0.3v5.5c0,1.2-1,2.2-2.2,2.2H24.5V56H35
			c0,0,0,0,0,0C38.7,58,42.8,59,47,59z M15.6,58.2c0-1.2,1-2.2,2.2-2.2h3.7v32.9h-3.7c-1.2,0-2.2-1-2.2-2.2V58.2z"/>
		<path class="st0" d="M18.6,76.9c0.8,0,1.5-0.7,1.5-1.5v-6c0-0.8-0.7-1.5-1.5-1.5c-0.8,0-1.5,0.7-1.5,1.5v6
			C17.1,76.3,17.7,76.9,18.6,76.9z"/>
		<path class="st0" d="M31.4,70.7c-0.5,0.6-0.4,1.6,0.2,2.1c0.6,0.5,1.6,0.4,2.1-0.2l0,0c4.1-5,10.7-7.2,16.9-5.6
			c0.8,0.2,1.6-0.3,1.8-1.1c0.2-0.8-0.3-1.6-1.1-1.8c0,0,0,0,0,0C44,62.2,36.2,64.8,31.4,70.7L31.4,70.7z"/>
		<path class="st0" d="M54.8,68.7c1.7,1,3.3,2.3,4.5,3.9c0.5,0.6,1.5,0.7,2.1,0.2c0.6-0.5,0.7-1.5,0.2-2.1c-1.5-1.8-3.3-3.4-5.4-4.6
			c-0.7-0.4-1.6-0.2-2,0.5C53.8,67.3,54,68.2,54.8,68.7C54.8,68.7,54.8,68.7,54.8,68.7L54.8,68.7z"/>
		<path class="st0" d="M45,71c-0.2-0.8-1-1.3-1.8-1.1c-2.8,0.7-5.3,2.3-7.1,4.6c-0.5,0.6-0.4,1.6,0.2,2.1c0.6,0.5,1.6,0.4,2.1-0.2
			l0,0c1.4-1.7,3.3-3,5.5-3.5C44.7,72.6,45.2,71.8,45,71C45,71,45,71,45,71z"/>
		<path class="st0" d="M48.2,69.6c-0.8-0.1-1.6,0.5-1.7,1.3c-0.1,0.8,0.5,1.6,1.3,1.7c2.7,0.3,5.1,1.7,6.8,3.8
			c0.5,0.6,1.5,0.7,2.1,0.2c0.6-0.5,0.7-1.5,0.2-2.1C54.8,71.7,51.7,70,48.2,69.6z"/>
		<path class="st0" d="M46.5,75.4c-2.3,0-4.4,1-5.8,2.8c-0.5,0.6-0.4,1.6,0.2,2.1s1.6,0.4,2.1-0.2l0,0c0.9-1.1,2.1-1.7,3.5-1.7
			c0.8,0,1.5-0.7,1.5-1.5C48,76.1,47.4,75.4,46.5,75.4z"/>
		<path class="st0" d="M51.5,77.3c-0.6-0.5-1.6-0.5-2.1,0.1c-0.5,0.6-0.5,1.6,0.1,2.1c0.2,0.2,0.4,0.3,0.5,0.5
			c0.5,0.6,1.5,0.7,2.1,0.2c0.6-0.5,0.7-1.5,0.2-2.1C52.1,77.9,51.8,77.6,51.5,77.3z"/>
		<path class="st0" d="M58.7,48.7c0.3,0,0.7-0.1,0.9-0.3l0.5-0.4c1-0.8,1.9-1.7,2.7-2.7c0.5-0.6,0.4-1.6-0.2-2.1
			c-0.6-0.5-1.6-0.4-2.1,0.2c0,0,0,0,0,0c-0.6,0.8-1.3,1.5-2.2,2.1L57.8,46c-0.7,0.5-0.8,1.4-0.3,2.1C57.8,48.5,58.2,48.7,58.7,48.7
			L58.7,48.7z"/>
		<path class="st0" d="M63.5,41.5c0.8,0.2,1.6-0.2,1.9-1c0,0,0,0,0,0c0.1-0.3,0.2-0.5,0.2-0.8c0.2-0.8-0.2-1.6-1-1.8
			c-0.8-0.2-1.6,0.2-1.8,1c0,0,0,0,0,0.1c-0.1,0.2-0.1,0.4-0.2,0.7C62.2,40.4,62.7,41.2,63.5,41.5z"/>
	</g>
</g>
</svg>
