<?xml version="1.0" encoding="utf-8"?>
<!-- Generator: Adobe Illustrator 24.1.3, SVG Export Plug-In . SVG Version: 6.00 Build 0)  -->
<svg version="1.1" id="Capa_1" xmlns="http://www.w3.org/2000/svg" xmlns:xlink="http://www.w3.org/1999/xlink" x="0px" y="0px"
	 viewBox="0 0 85.2 88.8" style="enable-background:new 0 0 85.2 88.8;" xml:space="preserve">
<style type="text/css">
	.st0{fill:#F9B30B;}
</style>
<g>
	<g>
		<path class="st0" d="M51.8,51.9c11.7,0,21.3-9.6,21.3-21.3S63.6,9.3,51.8,9.3s-21.3,9.6-21.3,21.3S40.1,51.9,51.8,51.9z M51.8,28
			c1.5,0,2.7,1.2,2.7,2.7s-1.2,2.7-2.7,2.7s-2.7-1.2-2.7-2.7C49.2,29.1,50.4,28,51.8,28z M69.3,24.2c0.7,2,1.1,4.1,1.1,6.4
			c0,1.7-0.2,3.3-0.6,4.8c-5,1.6-9.8,0.8-13.4-2.2c0.2-0.4,0.4-0.9,0.5-1.3C62,31.5,66.4,28.8,69.3,24.2z M46.7,29.3
			c-5,0.4-9.4,3.1-12.3,7.7c-0.7-2-1.1-4.1-1.1-6.4c0-1.7,0.2-3.3,0.6-4.8c5-1.6,9.8-0.8,13.4,2.2C47,28.4,46.8,28.9,46.7,29.3z
			 M35.7,40c2.4-4.6,6.4-7.5,11-7.9c0.1,0.5,0.3,0.9,0.6,1.3c-3.3,3.8-4.5,8.9-3.3,14.2C40.5,45.9,37.6,43.2,35.7,40L35.7,40z
			 M47.1,48.6c-1.6-5-0.8-9.8,2.2-13.4c0.4,0.2,0.9,0.4,1.3,0.5c0.4,5,3.1,9.4,7.7,12.3c-2,0.7-4.1,1.1-6.4,1.1
			C50.2,49.3,48.6,49,47.1,48.6z M61.2,46.7c-4.6-2.4-7.5-6.4-7.9-11c0.5-0.1,0.9-0.3,1.3-0.6c2.9,2.5,6.4,3.8,10.3,3.8
			c1.3,0,2.6-0.2,3.9-0.4C67.1,41.9,64.5,44.8,61.2,46.7z M67.9,21.3c-2.4,4.6-6.4,7.5-11,7.9c-0.1-0.5-0.3-0.9-0.6-1.3
			c3.3-3.8,4.5-8.9,3.3-14.2C63.2,15.4,66,18,67.9,21.3L67.9,21.3z M56.6,12.6c1.6,5,0.8,9.8-2.2,13.4c-0.4-0.2-0.9-0.4-1.3-0.5
			c-0.4-5-3.1-9.4-7.7-12.3c2-0.7,4.1-1.1,6.4-1.1C53.5,12,55.1,12.2,56.6,12.6L56.6,12.6z M42.5,14.5c4.6,2.4,7.5,6.4,7.9,11
			c-0.5,0.1-0.9,0.3-1.3,0.6c-3.8-3.3-8.9-4.5-14.2-3.3C36.6,19.3,39.2,16.4,42.5,14.5L42.5,14.5z"/>
		<path class="st0" d="M81.1,78.6V8c0-2.2-1.8-4-4-4H26.5c-2.2,0-4,1.8-4,4v43.9h-8V35c3.1-1.5,5.3-4.7,5.3-8.4V16c0-2.2-1.8-4-4-4
			H5.2c-2.2,0-4,1.8-4,4v10.7c0,3.7,2.2,6.9,5.3,8.4v18.2c0,3.7,3,6.7,6.7,6.7h9.3v18.6c-1.5,0-2.7,1.2-2.7,2.7V84
			c0,1.5,1.2,2.7,2.7,2.7h58.6c1.5,0,2.7-1.2,2.7-2.7v-2.7C83.8,79.8,82.6,78.6,81.1,78.6z M73.1,78.6v-8h5.3v8H73.1z M25.2,57.3
			h13.3v8h26.6v-8h13.3V68H25.2V57.3z M41.2,57.3h21.3v5.3H41.2V57.3z M38.5,70.6v8h-5.3v-8H38.5z M41.2,70.6h5.3v8h-5.3V70.6z
			 M49.2,70.6h5.3v8h-5.3V70.6z M57.2,70.6h5.3v8h-5.3V70.6z M65.2,70.6h5.3v8h-5.3V70.6z M26.5,6.6h50.6c0.7,0,1.3,0.6,1.3,1.3
			v46.6H25.2V8C25.2,7.2,25.8,6.6,26.5,6.6z M9.2,14.6h2.7v10.7H9.2V14.6z M3.9,26.6V16c0-0.7,0.6-1.3,1.3-1.3h1.3V28h8V14.6h1.3
			c0.7,0,1.3,0.6,1.3,1.3v10.7c0,3.7-3,6.7-6.7,6.7S3.9,30.3,3.9,26.6z M13.2,57.3c-2.2,0-4-1.8-4-4V35.8c0.4,0.1,0.9,0.1,1.3,0.1
			c0.5,0,0.9,0,1.3-0.1v16.1c0,1.5,1.2,2.7,2.7,2.7h8v2.7C22.5,57.3,13.2,57.3,13.2,57.3z M25.2,70.6h5.3v8h-5.3V70.6z M81.1,83.9
			H22.5v-2.7h58.6V83.9z"/>
		<path class="st0" d="M67.8,59.9h2.7v2.7h-2.7V59.9z"/>
		<path class="st0" d="M73.1,59.9h2.7v2.7h-2.7V59.9z"/>
		<path class="st0" d="M27.9,59.9h2.7v2.7h-2.7V59.9z"/>
		<path class="st0" d="M33.2,59.9h2.7v2.7h-2.7V59.9z"/>
		<path class="st0" d="M73.1,45.3c-2.2,0-4,1.8-4,4s1.8,4,4,4s4-1.8,4-4S75.3,45.3,73.1,45.3z M73.1,50.6c-0.7,0-1.3-0.6-1.3-1.3
			s0.6-1.3,1.3-1.3s1.3,0.6,1.3,1.3C74.5,50,73.9,50.6,73.1,50.6z"/>
		<path class="st0" d="M73.1,16c2.2,0,4-1.8,4-4s-1.8-4-4-4s-4,1.8-4,4S70.9,16,73.1,16z M73.1,10.6c0.7,0,1.3,0.6,1.3,1.3
			s-0.6,1.3-1.3,1.3s-1.3-0.6-1.3-1.3S72.4,10.6,73.1,10.6z"/>
		<path class="st0" d="M30.5,53.3c2.2,0,4-1.8,4-4s-1.8-4-4-4s-4,1.8-4,4S28.3,53.3,30.5,53.3z M30.5,47.9c0.7,0,1.3,0.6,1.3,1.3
			s-0.6,1.3-1.3,1.3c-0.7,0-1.3-0.6-1.3-1.3S29.8,47.9,30.5,47.9z"/>
		<path class="st0" d="M30.5,16c2.2,0,4-1.8,4-4s-1.8-4-4-4s-4,1.8-4,4S28.3,16,30.5,16z M30.5,10.6c0.7,0,1.3,0.6,1.3,1.3
			s-0.6,1.3-1.3,1.3c-0.7,0-1.3-0.6-1.3-1.3S29.8,10.6,30.5,10.6z"/>
	</g>
</g>
</svg>
