<?xml version="1.0" encoding="utf-8"?>
<!-- Generator: Adobe Illustrator 24.1.3, SVG Export Plug-In . SVG Version: 6.00 Build 0)  -->
<svg version="1.1" id="Capa_1" xmlns="http://www.w3.org/2000/svg" xmlns:xlink="http://www.w3.org/1999/xlink" x="0px" y="0px"
	 viewBox="0 0 80 80" style="enable-background:new 0 0 80 80;" xml:space="preserve">
<style type="text/css">
	.st0{fill:#F9B206;}
</style>
<g>
	<g>
		<g>
			<g>
				<path class="st0" d="M79.9,30.4l-7.5-14.8V9.7c0-0.9-0.7-1.6-1.6-1.6H9.3c-0.9,0-1.6,0.7-1.6,1.6v5.9L0.2,30.4
					C0.1,30.6,0,30.8,0,31.1v3.8c0,4.6,3.3,8.4,7.7,9.1v32.8H6.1c-0.9,0-1.6,0.7-1.6,1.6c0,0.9,0.7,1.6,1.6,1.6h3.2c0,0,0,0,0,0H52
					h12.5h6.3h3.2c0.9,0,1.6-0.7,1.6-1.6c0-0.9-0.7-1.6-1.6-1.6h-1.6V44c4.4-0.7,7.7-4.5,7.7-9.1v-3.8C80,30.8,80,30.6,79.9,30.4z
					 M10.8,11.2h58.4v3.1H58.5H46.2H33.9H21.6H10.8V11.2z M49.3,30.9l-1.4-13.4h9.4l4.2,13.8v3.6c0,3.4-2.7,6.1-6.1,6.1
					s-6.1-2.7-6.1-6.1v-3.8C49.3,31,49.3,31,49.3,30.9z M46.1,31.1v3.8h0c0,3.4-2.7,6.1-6.1,6.1c-3.4,0-6.1-2.7-6.1-6.1v-3.8
					l1.4-13.7h9.5L46.1,31.1z M32.1,17.5l-1.4,13.4c0,0.1,0,0.1,0,0.2v3.8c0,3.4-2.7,6.1-6.1,6.1s-6.1-2.7-6.1-6.1v-3.6l4.2-13.8
					H32.1z M3.1,34.9v-3.5l7.1-14h9.2l-4,13.1c0,0.1-0.1,0.3-0.1,0.5v3.8c0,3.4-2.7,6.1-6.1,6.1C5.9,41,3.1,38.3,3.1,34.9z M63,76.9
					h-9.4v-4.7v-6.3h1.6c0.9,0,1.6-0.7,1.6-1.6c0-0.9-0.7-1.6-1.6-1.6h-1.6V51.9H63V76.9z M69.2,76.9h-3.1V50.3
					c0-0.9-0.7-1.6-1.6-1.6H52H15.5c-0.9,0-1.6,0.7-1.6,1.6v21.9c0,0.9,0.7,1.6,1.6,1.6h34.9v3.1H10.8V44c2.5-0.4,4.7-1.9,6.1-4
					c1.7,2.5,4.5,4.1,7.7,4.1s6-1.6,7.7-4.1c1.7,2.5,4.5,4.1,7.7,4.1c3.2,0,6-1.6,7.7-4.1c1.7,2.5,4.5,4.1,7.7,4.1
					c3.2,0,6-1.6,7.7-4.1c1.4,2.1,3.6,3.5,6.1,4L69.2,76.9L69.2,76.9z M32.3,51.9h5.4l-3,3c-0.6,0.6-0.6,1.6,0,2.2
					c0.3,0.3,0.7,0.5,1.1,0.5c0.4,0,0.8-0.2,1.1-0.5l5.2-5.2h8.3v18.8H17.1v-3.5L32.3,51.9z M17.1,62.7V51.9h10.8L17.1,62.7z
					 M76.9,34.9c0,3.4-2.7,6.1-6.1,6.1c-3.4,0-6.1-2.7-6.1-6.1v-3.8c0-0.2,0-0.3-0.1-0.5l-4-13.1h9.2l7.1,14V34.9z"/>
				<path class="st0" d="M32.7,60.7c0.4,0,0.8-0.2,1.1-0.5l0,0c0.6-0.6,0.6-1.6,0-2.2c-0.6-0.6-1.6-0.6-2.2,0l0,0
					c-0.6,0.6-0.6,1.6,0,2.2C31.9,60.6,32.3,60.7,32.7,60.7z"/>
				<path class="st0" d="M1.6,76.9L1.6,76.9c-0.9,0-1.6,0.7-1.6,1.6C0,79.3,0.7,80,1.6,80h0c0.9,0,1.6-0.7,1.6-1.6
					C3.2,77.6,2.5,76.9,1.6,76.9z"/>
				<path class="st0" d="M78.5,76.9L78.5,76.9c-0.9,0-1.6,0.7-1.6,1.6c0,0.9,0.7,1.6,1.6,1.6h0c0.9,0,1.6-0.7,1.6-1.6
					C80,77.6,79.3,76.9,78.5,76.9z"/>
			</g>
		</g>
	</g>
</g>
</svg>
