<?xml version="1.0" encoding="utf-8"?>
<!-- Generator: Adobe Illustrator 24.1.3, SVG Export Plug-In . SVG Version: 6.00 Build 0)  -->
<svg version="1.1" id="Capa_1" xmlns="http://www.w3.org/2000/svg" xmlns:xlink="http://www.w3.org/1999/xlink" x="0px" y="0px"
	 viewBox="0 0 94 94" style="enable-background:new 0 0 94 94;" xml:space="preserve">
<style type="text/css">
	.st0{fill:#F9B200;}
</style>
<g>
	<g id="Outline_1_">
		<g>
			<path class="st0" d="M32.5,63.6c-0.6-0.2-1.3,0-1.7,0.5l-9.1,12.2c-0.5,0.7-0.4,1.6,0.3,2.1c0.3,0.2,0.6,0.3,0.9,0.3h4.3L26,86.1
				c-0.1,0.8,0.4,1.6,1.3,1.7c0.5,0.1,1.1-0.1,1.4-0.6l10.6-13.7c0.5-0.7,0.4-1.6-0.3-2.1c-0.3-0.2-0.6-0.3-0.9-0.3h-4.6V65
				C33.5,64.4,33.1,63.8,32.5,63.6z M35,74.2l-5,6.5l0.5-3.2c0.1-0.8-0.4-1.6-1.2-1.8c-0.1,0-0.2,0-0.3,0h-3l4.6-6.1v3
				c0,0.8,0.7,1.5,1.5,1.5H35z"/>
			<path class="st0" d="M53.3,42.2c-0.8,0-1.5,0.7-1.5,1.5s0.7,1.5,1.5,1.5h4.6v3h-3c-0.8,0-1.5,0.7-1.5,1.5c0,0.8,0.7,1.5,1.5,1.5
				h18.3c0.8,0,1.5-0.7,1.5-1.5c0-0.8-0.7-1.5-1.5-1.5h-3v-3h4.6c0.8,0,1.5-0.7,1.5-1.5V30.1c0-0.8-0.7-1.5-1.5-1.5H53.3
				c-0.8,0-1.5,0.7-1.5,1.5v7.6c0,0.8,0.7,1.5,1.5,1.5c0.8,0,1.5-0.7,1.5-1.5v-6.1h5.5l10.6,10.6H53.3z M67,48.3h-6.1v-3H67V48.3z
				 M73.1,31.6v8.5l-8.5-8.5H73.1z"/>
			<path class="st0" d="M67,75.7v-7.6c0-0.8-0.7-1.5-1.5-1.5S64,67.3,64,68.1v7.6c0,0.8,0.7,1.5,1.5,1.5S67,76.5,67,75.7z"/>
			<path class="st0" d="M60.3,70c-0.7-0.5-1.6-0.4-2.1,0.3l0,0c-1.2,1.6-1.8,3.5-1.8,5.4c0,5,4.1,9.1,9.1,9.1s9.1-4.1,9.1-9.1
				c0-2-0.6-3.9-1.8-5.4c-0.5-0.6-1.5-0.7-2.1-0.2c-0.6,0.5-0.7,1.3-0.3,2c0.8,1,1.2,2.3,1.2,3.6c0,3.4-2.7,6.1-6.1,6.1
				c-3.4,0-6.1-2.7-6.1-6.1c0-1.3,0.4-2.6,1.2-3.6C61.1,71.4,61,70.5,60.3,70z"/>
			<path class="st0" d="M24.4,40.7c-2.5,0-4.6,2-4.6,4.5c0,2,1.3,3.8,3.2,4.4c0.7,4.1,4.6,6.9,8.7,6.2c3.2-0.5,5.7-3,6.2-6.2
				c2.4-0.8,3.7-3.3,3-5.7c-0.4-1.4-1.5-2.4-2.8-2.9v-0.5c4.1-4.2,4-10.9-0.2-15.1s-10.9-4-15.1,0.2c-2.9,2.9-3.8,7.2-2.4,11
				c0.3,0.8,1.2,1.2,1.9,0.9c0.8-0.3,1.2-1.2,0.9-1.9l0,0c-1.4-4,0.7-8.3,4.6-9.7c4-1.4,8.3,0.7,9.7,4.6c1,2.9,0.2,6.2-2.1,8.2
				c-0.3,0.3-0.5,0.7-0.5,1.1v0.8h-3v-3.9l2.6-2.6c0.6-0.6,0.6-1.6,0-2.2c-0.6-0.6-1.5-0.6-2.1,0l-2,2l-2-2c-0.6-0.6-1.6-0.6-2.2,0
				c-0.6,0.6-0.6,1.5,0,2.1l2.6,2.6v3.9H24.4z M30.5,52.9c-1.9,0-3.7-1.2-4.3-3h8.6C34.1,51.7,32.4,52.9,30.5,52.9z M36.6,46.8H24.4
				c-0.8,0-1.5-0.7-1.5-1.5c0-0.8,0.7-1.5,1.5-1.5h12.2c0.8,0,1.5,0.7,1.5,1.5C38.1,46.1,37.4,46.8,36.6,46.8z"/>
			<path class="st0" d="M92.2,31.9L76.1,20.8V2.7c0-0.8-0.7-1.5-1.5-1.5H62.4c-0.8,0-1.5,0.7-1.5,1.5v7.6L48.1,1.4
				c-0.5-0.4-1.2-0.4-1.7,0L2.2,31.9c-0.4,0.3-0.7,0.8-0.7,1.3v4.6c0,0.8,0.7,1.5,1.5,1.5h7.6v7.6c0,0.8,0.7,1.5,1.5,1.5
				c0.8,0,1.5-0.7,1.5-1.5v-9.1c0-0.8-0.7-1.5-1.5-1.5H4.6v-2.2L47.2,4.5l14.4,9.9c0.7,0.5,1.6,0.3,2.1-0.4c0.2-0.3,0.3-0.6,0.3-0.9
				v-9h9.1v17.4c0,0.5,0.2,1,0.7,1.3l16.1,11.1v2.2h-7.6c-0.8,0-1.5,0.7-1.5,1.5V59H48.7V11.8c0-0.8-0.7-1.5-1.5-1.5
				s-1.5,0.7-1.5,1.5V59H18.3c-0.8,0-1.5,0.7-1.5,1.5s0.7,1.5,1.5,1.5h27.4v22.8c0,0.8,0.7,1.5,1.5,1.5s1.5-0.7,1.5-1.5V62h31.9v7.6
				c0,0.8,0.7,1.5,1.5,1.5s1.5-0.7,1.5-1.5V39.2h7.6c0.8,0,1.5-0.7,1.5-1.5v-4.6C92.9,32.6,92.6,32.1,92.2,31.9z"/>
			<path class="st0" d="M91.3,83.3h-7.6v-7.6c0-0.8-0.7-1.5-1.5-1.5s-1.5,0.7-1.5,1.5v9.1c0,0.8,0.7,1.5,1.5,1.5h7.6v3H4.6v-3h7.6
				c0.8,0,1.5-0.7,1.5-1.5V52.9c0-0.8-0.7-1.5-1.5-1.5c-0.8,0-1.5,0.7-1.5,1.5v30.4H3.1c-0.8,0-1.5,0.7-1.5,1.5v6.1
				c0,0.8,0.7,1.5,1.5,1.5h88.2c0.8,0,1.5-0.7,1.5-1.5v-6.1C92.9,84,92.2,83.3,91.3,83.3z"/>
		</g>
	</g>
</g>
</svg>
