<svg id="Capa_1" enable-background="new 0 0 512 512" height="512" viewBox="0 0 512 512" width="512" xmlns="http://www.w3.org/2000/svg"><g><path d="m497 452v-209.247h-272v15h257v194.247z"/><path d="m497 497v-30h-15v30h-99.839v-74.249h-105v74.249h-97.161v-239.247h30v-15h-45v254.247h-15v-119.999h-105v119.999h-15v-122.248h-15v122.248h-15v15h90v-15h-30v-17.249h75.001v17.249h-30.001v15h217.162v-15h-30v-59.249h75v59.249h-30v15h174.838v-15zm-361.999-104.999v42.75h-75.001v-15h30.001v-15h-30.001v-12.75zm-75.001 72.75v-15h75.001v15z"/><path d="m15 359.752h15v-30h120v-15h-135v-15h135v-15h-30.029v-96.567l-15-151.041v-22.144h15v-15h-75v15h15v22.128l-6.72 67.509 14.926 1.485 6.085-61.122h16.419l14.29 143.557v96.195h-45v-96.195l6.72-67.508-14.926-1.486-6.794 68.249v96.94h-44.971v45h15zm74.972-344.752v15h-15v-15z"/><path d="m277.162 407.751h45v-45h-45zm15-30h15v15h-15z"/><path d="m442.161 362.751h-45v45h45zm-15 30h-15v-15h15z"/><path d="m382.161 302.752h-45v45h45zm-15 30h-15v-15h15z"/><path d="m337.161 407.751h45v-45h-45zm15-30h15v15h-15z"/><path d="m262.162 422.751h-45v45h45zm-15 30h-15v-15h15z"/><path d="m322.162 302.752h-45v45h45zm-15 30h-15v-15h15z"/><path d="m442.161 302.752h-45v45h45zm-15 30h-15v-15h15z"/><path d="m262.162 302.752h-45v45h45zm-15 30h-15v-15h15z"/><path d="m262.162 362.751h-45v45h45zm-15 30h-15v-15h15z"/><path d="m442.161 422.751h-45v45h45zm-15 30h-15v-15h15z"/><path d="m344.972 130.629v97.124h15v-71.41l39.848-11.385-4.122-14.422-35.726 10.207v-29.999l-54.848 15.67 4.121 14.423z"/><path d="m449.972 130.629v97.124h15v-117.009l-54.847 15.67 4.121 14.423z"/><path d="m239.971 130.629v97.124h15v-71.41l39.849-11.385-4.122-14.422-35.727 10.207v-29.999l-54.847 15.67 4.121 14.423z"/><path d="m149.971 156.343 39.848-11.385-4.121-14.422-50.727 14.493v124.724h15z"/><path d="m337.161 452.75h15v15h-15z"/><path d="m452.001 272.752h15v15h-15z"/><path d="m392.001 272.752h45v15h-45z"/><path d="m135.001 344.752h15v15h-15z"/><path d="m314.972 190.253h15v37.5h-15z"/><path d="m314.972 160.253h15v15h-15z"/><path d="m419.973 190.253h15v37.5h-15z"/><path d="m74.972 218.185h15v37.5h-15z"/><path d="m419.973 160.253h15v15h-15z"/><path d="m209.972 160.253h15v15h-15z"/><path d="m209.972 190.253h15v37.5h-15z"/><path d="m75.001 344.752h45v15h-45z"/><path d="m105.001 404.752h15v15h-15z"/><path d="m74.972 188.185h15v15h-15z"/></g></svg>