<?xml version="1.0" encoding="utf-8"?>
<!-- Generator: Adobe Illustrator 24.1.3, SVG Export Plug-In . SVG Version: 6.00 Build 0)  -->
<svg version="1.1" id="Capa_1" xmlns="http://www.w3.org/2000/svg" xmlns:xlink="http://www.w3.org/1999/xlink" x="0px" y="0px"
	 viewBox="0 0 80 80" style="enable-background:new 0 0 80 80;" xml:space="preserve">
<style type="text/css">
	.st0{fill:#F9B206;}
</style>
<g>
	<path class="st0" d="M56.3,19.2c0-1.8,0-3.5,0-5.2c0-1.3,0.5-1.8,1.8-1.8c2.5,0,5,0,7.6,0c1.3,0,1.8,0.5,1.8,1.8
		c0,4.4,0,8.7,0,13.1c0,0.7,0.2,1.1,0.7,1.5c2.5,1.9,5,3.8,7.4,5.8c1.3,1,1.3,1.7,0.2,2.9c-1.4,1.4-2.9,2.9-4.3,4.3
		c-1,1-1.3,1-2.6,0.5c0,0.5,0,1.1,0,1.6c0,3.1,0,6.3,0,9.4c0,0.9-0.4,1.5-1.2,1.6C66.7,54.7,66,54,66,53c0-3,0-6,0-9
		c0-1.2,0-2.5,0-3.7c0-0.5-0.1-0.8-0.5-1.1C58.9,34.1,52.4,29,45.9,23.9c-1.9-1.5-3.9-3-5.9-4.6c-2.3,1.8-4.5,3.5-6.8,5.3
		c-6.2,4.9-12.4,9.7-18.7,14.6c-0.4,0.3-0.5,0.6-0.5,1.1c0,12.1,0,24.1,0,36.2c0,0.2,0,0.4,0,0.7c1.3,0,2.6,0,4,0c0-0.3,0-0.5,0-0.8
		c0-4.1,0-8.2,0-12.3c0-0.6,0.2-1.1,0.7-1.5c1-0.6,2.1,0.1,2.1,1.3c0,1.9,0,3.8,0,5.6c0,2.5,0,5.1,0,7.7c15,0,30,0,45.1,0
		c0-0.3,0-0.5,0-0.8c0-4.1,0-8.1,0-12.2c0-0.7,0.2-1.3,0.9-1.5c0.9-0.4,1.9,0.3,1.9,1.4c0,1.9,0,3.8,0,5.6c0,2.5,0,5,0,7.6
		c1.4,0,2.8,0,4.2,0c0.7,0,1.4,0,2.1,0c0.9,0,1.5,0.6,1.5,1.4c0,0.8-0.6,1.4-1.5,1.4c-0.2,0-0.3,0-0.5,0c-23,0-46.1,0-69.1,0
		c-0.2,0-0.3,0-0.5,0c-0.9,0-1.5-0.6-1.5-1.5c0-0.8,0.6-1.4,1.5-1.4c1.8,0,3.6,0,5.4,0c0.3,0,0.5,0,0.8,0c0-11.8,0-23.4,0-35.2
		c-1.1,0.8-1.9,0.3-2.7-0.5C7,39.9,5.6,38.5,4.1,37c-1-1-0.9-1.8,0.2-2.6c11.5-9,23.1-18,34.6-27c0.9-0.7,1.4-0.7,2.3,0
		c4.8,3.7,9.5,7.4,14.3,11.1C55.7,18.8,55.9,18.9,56.3,19.2z M40,10.2C29,18.8,18.1,27.3,7.2,35.7c1,1.1,2,2.1,3.1,3.1
		c0.1-0.1,0.3-0.2,0.5-0.4c9.3-7.3,18.6-14.5,27.9-21.8c1.1-0.9,1.5-0.9,2.6,0c9.2,7.2,18.4,14.3,27.6,21.5c0.3,0.2,0.6,0.5,0.8,0.6
		c1.1-1.1,2.1-2.1,3.1-3.1C61.9,27.3,51,18.7,40,10.2z M64.5,25.6c0-3.6,0-7.1,0-10.5c-1.8,0-3.6,0-5.4,0c0,2,0,4,0,6
		c0,0.2,0.1,0.5,0.3,0.6C61.1,23,62.7,24.3,64.5,25.6z"/>
	<path class="st0" d="M40,68.3c-4.4,0-8.8,0-13.1,0c-1.5,0-2-0.4-2-1.9c0-8.8,0-17.6,0-26.4c0-1.5,0.4-1.9,1.9-1.9
		c8.8,0,17.6,0,26.5,0c1.4,0,1.9,0.5,1.9,1.9c0,8.9,0,17.8,0,26.7c0,1.2-0.5,1.7-1.8,1.7C48.9,68.3,44.4,68.3,40,68.3z M38.5,65.4
		c0-3.6,0-7.2,0-10.8c-3.6,0-7.2,0-10.8,0c0,3.6,0,7.2,0,10.8C31.4,65.4,34.9,65.4,38.5,65.4z M41.5,54.6c0,3.6,0,7.2,0,10.8
		c3.6,0,7.2,0,10.8,0c0-3.6,0-7.2,0-10.8C48.6,54.6,45.1,54.6,41.5,54.6z M41.5,40.9c0,3.6,0,7.2,0,10.8c3.6,0,7.2,0,10.8,0
		c0-3.6,0-7.2,0-10.8C48.6,40.9,45.1,40.9,41.5,40.9z M27.8,51.7c3.6,0,7.2,0,10.8,0c0-3.6,0-7.2,0-10.8c-3.6,0-7.2,0-10.8,0
		C27.8,44.5,27.8,48.1,27.8,51.7z"/>
	<path class="st0" d="M20.9,58.1c0,0.8-0.6,1.4-1.4,1.4c-0.8,0-1.5-0.7-1.4-1.5c0-0.8,0.7-1.4,1.5-1.4
		C20.3,56.7,20.9,57.3,20.9,58.1z"/>
	<path class="st0" d="M68.8,58.9c0,0.8-0.7,1.4-1.5,1.4c-0.8,0-1.4-0.7-1.4-1.4c0-0.8,0.7-1.4,1.5-1.4
		C68.2,57.5,68.8,58.1,68.8,58.9z"/>
</g>
</svg>
