<?xml version="1.0" encoding="utf-8"?>
<!-- Generator: Adobe Illustrator 24.1.3, SVG Export Plug-In . SVG Version: 6.00 Build 0)  -->
<svg version="1.1" id="Capa_1" xmlns="http://www.w3.org/2000/svg" xmlns:xlink="http://www.w3.org/1999/xlink" x="0px" y="0px"
	 viewBox="0 0 94 94" style="enable-background:new 0 0 94 94;" xml:space="preserve">
<style type="text/css">
	.st0{fill:#F9B200;}
</style>
<g>
	<g id="lighting_1_">
		<path class="st0" d="M90.9,2.4H3.1c-0.8,0-1.5,0.7-1.5,1.5V10c0,0.8,0.7,1.5,1.5,1.5h15.1V13c0,0.8-0.7,1.5-1.5,1.5h-1
			c-2.5,0-4.5,2-4.5,4.5c0,1.3,0.6,2.6,1.6,3.4l4.8,4.2l-4.9,4.9c-0.6,0.6-0.6,1.6,0,2.1l6.5,6.5l-6.5,6.5c-0.6,0.6-0.6,1.6,0,2.1
			L47,83.3v8.5h3v-8.5l2.5-2.5c2.7,2.2,6.1,3.4,9.6,3.4c8.4,0,15.1-6.8,15.1-15.1c0-3.5-1.2-6.9-3.4-9.6l2.5-2.5h8.5v-3h-8.5
			L45.5,23V11.5h45.4c0.8,0,1.5-0.7,1.5-1.5V3.9C92.4,3.1,91.8,2.4,90.9,2.4z M14.7,20.2c-0.6-0.6-0.7-1.5-0.1-2.1
			c0.3-0.3,0.7-0.5,1.1-0.5h1c2.5,0,4.5-2,4.5-4.5v-1.5h15.1V23l-1.5,1.5L28.4,18c-0.6-0.6-1.6-0.6-2.1,0l-6.6,6.6L14.7,20.2z
			 M50,46.3c0,5-4.1,9.1-9.1,9.1s-9.1-4.1-9.1-9.1s4.1-9.1,9.1-9.1C46,37.2,50,41.3,50,46.3z M27.3,21.2l5.4,5.4L21.3,38.1l-5.4-5.4
			L27.3,21.2z M74.3,69c0,6.7-5.4,12.1-12.1,12.1c-2.7,0-5.3-0.9-7.4-2.6l17-17C73.4,63.7,74.3,66.3,74.3,69z M73.6,55.4L48.5,80.5
			L15.8,47.8l20.6-20.6v7.8c-6.2,2.5-9.2,9.6-6.7,15.8s9.6,9.2,15.8,6.7c6.2-2.5,9.2-9.6,6.7-15.8c-1.2-3-3.6-5.5-6.7-6.7v-7.8
			L73.6,55.4z M89.4,8.4H44c-0.8,0-1.5,0.7-1.5,1.5v24.3c-1-0.1-2-0.1-3,0V10c0-0.8-0.7-1.5-1.5-1.5H4.6v-3h84.8V8.4z"/>
		<path class="st0" d="M36.4,46.3c0,2.5,2,4.5,4.5,4.5c2.5,0,4.5-2,4.5-4.5s-2-4.5-4.5-4.5C38.4,41.8,36.4,43.8,36.4,46.3z
			 M42.5,46.3c0,0.8-0.7,1.5-1.5,1.5s-1.5-0.7-1.5-1.5c0-0.8,0.7-1.5,1.5-1.5S42.5,45.5,42.5,46.3z"/>
	</g>
</g>
</svg>
