<?xml version="1.0" encoding="utf-8"?>
<!-- Generator: Adobe Illustrator 24.1.3, SVG Export Plug-In . SVG Version: 6.00 Build 0)  -->
<svg version="1.1" id="Capa_1" xmlns="http://www.w3.org/2000/svg" xmlns:xlink="http://www.w3.org/1999/xlink" x="0px" y="0px"
	 viewBox="0 0 85.2 88.8" style="enable-background:new 0 0 85.2 88.8;" xml:space="preserve">
<style type="text/css">
	.st0{fill:#F9B30B;}
</style>
<g>
	<g>
		<path class="st0" d="M20.1,5.4c-0.7,0-1.3-0.6-1.3-1.2c0-0.7,0.6-1.3,1.3-1.3h59.4c1.6,0,3,0.7,4.1,1.7c1,1,1.7,2.5,1.7,4.1
			c0,1.6-0.6,3-1.7,4.1c-1,1-2.5,1.7-4.1,1.7h-6.6c-0.7,0-1.3-0.6-1.3-1.3s0.6-1.2,1.3-1.2h6.6c0.9,0,1.7-0.4,2.3-1
			c0.6-0.6,1-1.4,1-2.3c0-0.9-0.4-1.7-1-2.3c-0.6-0.6-1.4-1-2.3-1L20.1,5.4L20.1,5.4z M41.4,49.1c0-0.7,0.6-1.2,1.2-1.2
			c0.7,0,1.3,0.6,1.3,1.2v17.8c0,0.7-0.6,1.2-1.3,1.2c-0.7,0-1.2-0.6-1.2-1.2V49.1z M51.5,49.7c-0.3-0.6-0.1-1.4,0.5-1.7
			c0.6-0.3,1.4-0.1,1.7,0.5l9.5,17.6c0.3,0.6,0.1,1.4-0.5,1.7c-0.6,0.3-1.4,0.1-1.7-0.5L51.5,49.7z M67.9,80.2
			c-0.3-0.6-0.1-1.4,0.5-1.7c0.6-0.3,1.4-0.1,1.7,0.5l1.3,2.4c0.3,0.6,0.1,1.4-0.5,1.7c-0.6,0.3-1.4,0.1-1.7-0.5L67.9,80.2z
			 M63.8,72.6c-0.3-0.6-0.1-1.4,0.5-1.7c0.6-0.3,1.4-0.1,1.7,0.5l1.3,2.4c0.3,0.6,0.1,1.4-0.5,1.7c-0.6,0.3-1.4,0.1-1.7-0.5
			L63.8,72.6z M31.5,48.5c0.3-0.6,1.1-0.8,1.7-0.5c0.6,0.3,0.8,1.1,0.5,1.7l-9.5,17.6c-0.3,0.6-1.1,0.8-1.7,0.5
			c-0.6-0.3-0.8-1.1-0.5-1.7L31.5,48.5z M15.1,79.1c0.3-0.6,1.1-0.8,1.7-0.5c0.6,0.3,0.8,1.1,0.5,1.7l-1.3,2.4
			c-0.3,0.6-1.1,0.8-1.7,0.5c-0.6-0.3-0.8-1.1-0.5-1.7L15.1,79.1z M19.2,71.4c0.3-0.6,1.1-0.8,1.7-0.5c0.6,0.3,0.8,1.1,0.5,1.7
			L20.2,75c-0.3,0.6-1.1,0.8-1.7,0.5c-0.6-0.3-0.8-1.1-0.5-1.7L19.2,71.4z M48.6,56.8c-0.2-0.7,0.2-1.3,0.8-1.5
			c0.7-0.2,1.4,0.2,1.5,0.8l0.7,2.3c0.2,0.7-0.2,1.4-0.8,1.5c-0.7,0.2-1.3-0.2-1.5-0.8L48.6,56.8z M46.4,49.4
			c-0.2-0.7,0.2-1.4,0.8-1.5c0.7-0.2,1.4,0.2,1.5,0.8l0.7,2.3c0.2,0.7-0.2,1.4-0.8,1.5c-0.7,0.2-1.3-0.2-1.5-0.8L46.4,49.4z
			 M34.2,56.1c0.2-0.7,0.9-1,1.5-0.8c0.7,0.2,1,0.9,0.8,1.5l-0.7,2.3c-0.2,0.7-0.9,1-1.5,0.8c-0.7-0.2-1-0.9-0.8-1.5L34.2,56.1z
			 M36.4,48.7c0.2-0.7,0.9-1,1.5-0.8c0.7,0.2,1,0.9,0.8,1.5l-0.7,2.3c-0.2,0.7-0.9,1-1.5,0.8c-0.7-0.2-1-0.9-0.8-1.5L36.4,48.7z
			 M63.3,55.2c-0.5-0.5-0.5-1.2-0.1-1.8c0.5-0.5,1.3-0.5,1.8-0.1l1.8,1.6c0.5,0.5,0.5,1.2,0.1,1.8c-0.5,0.5-1.3,0.5-1.8,0.1
			L63.3,55.2z M57.6,50c-0.5-0.5-0.5-1.2-0.1-1.8c0.5-0.5,1.2-0.5,1.8-0.1l1.8,1.6c0.5,0.5,0.5,1.2,0.1,1.8
			c-0.5,0.5-1.2,0.5-1.8,0.1L57.6,50z M20.2,53.3c0.5-0.5,1.3-0.4,1.8,0.1c0.5,0.5,0.4,1.3-0.1,1.8l-1.8,1.6
			c-0.5,0.5-1.3,0.4-1.8-0.1c-0.5-0.5-0.4-1.3,0.1-1.8L20.2,53.3z M26,48.2c0.5-0.5,1.3-0.4,1.8,0.1c0.5,0.5,0.4,1.3-0.1,1.8
			l-1.8,1.6c-0.5,0.5-1.3,0.4-1.8-0.1c-0.5-0.5-0.4-1.3,0.1-1.8L26,48.2z M41.4,79.9c0-0.7,0.6-1.2,1.2-1.2c0.7,0,1.3,0.6,1.3,1.2
			v2.4c0,0.7-0.6,1.2-1.3,1.2c-0.7,0-1.2-0.6-1.2-1.2V79.9z M41.4,72.2c0-0.7,0.6-1.3,1.2-1.3c0.7,0,1.3,0.6,1.3,1.3v2.4
			c0,0.7-0.6,1.3-1.3,1.3c-0.7,0-1.2-0.6-1.2-1.3V72.2z M36.5,36.4c0-0.7,0.6-1.3,1.3-1.3s1.2,0.6,1.2,1.3v3.2
			c0,0.7-0.6,1.3-1.2,1.3c-0.7,0-1.3-0.6-1.3-1.3V36.4z M46.2,36.4c0-0.7,0.6-1.3,1.3-1.3c0.7,0,1.2,0.6,1.2,1.3v3.2
			c0,0.7-0.6,1.3-1.2,1.3c-0.7,0-1.3-0.6-1.3-1.3V36.4z M41.4,36.4c0-0.7,0.6-1.3,1.2-1.3c0.7,0,1.3,0.6,1.3,1.3v3.2
			c0,0.7-0.6,1.3-1.3,1.3c-0.7,0-1.2-0.6-1.2-1.3V36.4z M48.1,23l9.4-4.7v-3.9h-9.4V23z M59.9,14.4v4.7c0,0.5-0.3,0.9-0.7,1.1
			l-11.2,5.6v5h8.4c0.4,0,0.8,0.2,1,0.5c0.3,0.4,0.3,0.8,0.2,1.3l-4,11.9c-0.2,0.5-0.6,0.9-1.2,0.9h-7c-0.7,0-1.2-0.6-1.2-1.3
			c0-0.7,0.6-1.3,1.2-1.3h6.1l3.2-9.5c-8,0-16.1,0-24.2,0l3.2,9.5h6.1c0.7,0,1.3,0.6,1.3,1.3c0,0.7-0.6,1.3-1.3,1.3h-7
			c-0.6,0-1.1-0.4-1.2-0.9l-4-11.9c-0.1-0.4,0-0.9,0.2-1.2c0.2-0.3,0.6-0.4,0.9-0.4h8.4v-5L26,20.2c-0.4-0.2-0.7-0.6-0.7-1.1v-4.7
			H5.8c-1.6,0-3-0.7-4.1-1.7c-1-1-1.7-2.5-1.7-4.1c0-1.6,0.7-3,1.7-4.1c1-1,2.5-1.7,4.1-1.7h8.6c0.7,0,1.3,0.6,1.3,1.3
			c0,0.7-0.6,1.2-1.3,1.2H5.8c-0.9,0-1.7,0.4-2.3,1c-0.6,0.6-1,1.4-1,2.3c0,0.9,0.4,1.7,1,2.3c0.6,0.6,1.4,1,2.3,1h61.5
			c0.7,0,1.3,0.6,1.3,1.2c0,0.7-0.6,1.3-1.3,1.3H59.9z M27.8,14.4v3.9l9.4,4.7v-8.6H27.8z M39.7,14.4v16.4h5.9V14.4H39.7z"/>
	</g>
</g>
</svg>
