<?xml version="1.0" encoding="utf-8"?>
<!-- Generator: Adobe Illustrator 24.1.3, SVG Export Plug-In . SVG Version: 6.00 Build 0)  -->
<svg version="1.1" id="Capa_1" xmlns="http://www.w3.org/2000/svg" xmlns:xlink="http://www.w3.org/1999/xlink" x="0px" y="0px"
	 viewBox="0 0 80 80" style="enable-background:new 0 0 80 80;" xml:space="preserve">
<style type="text/css">
	.st0{fill:#F9B206;}
</style>
<g>
	<g>
		<path class="st0" d="M69.5,31.1h-10l-2.6,20.6H46.5V31.1h-5.2v-5.2h-7.7V13h-2.7L29.6,0.2h-7.5L20.8,13h-2.7V7.9H7.8V13H5.2v30.4
			C2,46.5,0,50.8,0,55.5s2,9,5.2,12.1V80h72.2V51.7h-5.3L69.5,31.1z M67.3,33.6l0.3,2.6h-6.1l0.3-2.6H67.3z M61.2,38.8h6.7l1.6,12.9
			h-10L61.2,38.8z M43.9,51.7H33.1c-1.5-6.1-6.3-11-12.4-12.4v-5.6h23.2V51.7z M21.6,68.9c0.7-1.2,1.3-2.6,1.8-4.3h4.3
			C26.1,66.5,24,68,21.6,68.9z M5.9,64.5h4.3c0.5,1.7,1.1,3.1,1.8,4.3C9.6,68,7.5,66.5,5.9,64.5z M12,42.2c-0.7,1.2-1.3,2.6-1.8,4.3
			H5.9C7.5,44.6,9.6,43.1,12,42.2z M12.9,23.3H7.8v-2.6h5.2V23.3z M12.9,25.9v2.6H7.8v-2.6H12.9z M12.9,31.1v2.6H7.8v-2.6H12.9z
			 M24.5,54.2c-0.1-1.8-0.2-3.6-0.5-5.2h5.4c0.8,1.6,1.3,3.3,1.5,5.2H24.5z M11.7,54.2c0.1-1.9,0.3-3.6,0.6-5.2h9.1
			c0.3,1.6,0.5,3.3,0.6,5.2H11.7z M21.9,56.8c-0.1,1.9-0.3,3.6-0.6,5.2h-9.1c-0.3-1.6-0.5-3.3-0.6-5.2H21.9z M23.4,46.5
			c-0.5-1.7-1.1-3.1-1.8-4.3c2.4,0.9,4.5,2.4,6.1,4.3H23.4z M20.7,46.5h-7.8c1-3.2,2.5-5.2,3.9-5.2S19.7,43.3,20.7,46.5z M9.6,49.1
			c-0.3,1.6-0.5,3.3-0.5,5.2H2.7c0.2-1.8,0.7-3.6,1.5-5.2H9.6z M9.1,56.8c0.1,1.8,0.2,3.6,0.5,5.2H4.2c-0.8-1.6-1.3-3.3-1.5-5.2H9.1
			z M12.9,64.5h7.8c-1,3.2-2.5,5.2-3.9,5.2C15.4,69.7,13.9,67.7,12.9,64.5z M29.4,62H24c0.3-1.6,0.5-3.3,0.5-5.2h6.4
			C30.8,58.7,30.2,60.4,29.4,62L29.4,62z M38.7,31.1H25.8v-2.6h12.9V31.1z M31,25.9h-7.7v5.2h-5.2v7.8c-0.4,0-0.9-0.1-1.3-0.1
			c-0.4,0-0.9,0-1.3,0.1V15.6H31V25.9z M24.4,2.7h2.8l1,10.3h-4.9L24.4,2.7z M10.4,10.5h5.2V13h-5.2V10.5z M12.9,15.6v2.6H7.8v-2.6
			H12.9z M7.8,36.2h5.2v3c-1.9,0.4-3.6,1.2-5.2,2.2V36.2z M7.8,69.6c2.6,1.7,5.7,2.7,9,2.7s6.4-1,9-2.7v7.8H7.8L7.8,69.6z
			 M38.7,77.4h-5.2V67.1h5.2V77.4z M54.2,77.4h-5.2V67.1h5.2V77.4z M69.7,77.4h-5.2V67.1h5.2V77.4z M72.3,77.4V64.5H61.9v12.9h-5.2
			V64.5H46.5v12.9h-5.2V64.5H31v12.9h-2.6v-9.8c2.3-2.2,3.9-5,4.7-8.2h41.7v18H72.3z M74.8,56.8H33.5c0-0.4,0.1-0.9,0.1-1.3
			c0-0.4,0-0.9-0.1-1.3h41.3V56.8z"/>
		<path class="st0" d="M73.6,13h-2.6c-0.3-2.9-2.8-5.2-5.8-5.2h-3.2v2.6h3.2c1.8,0,3.2,1.4,3.2,3.2v1.9h5.2c2.1,0,3.9,1.7,3.9,3.9
			c0,2.1-1.7,3.9-3.9,3.9h-3.9c-2.1,0-3.9,1.7-3.9,3.9v1.3h2.6v-1.3c0-0.7,0.6-1.3,1.3-1.3h3.9c3.6,0,6.4-2.9,6.4-6.4
			S77.1,13,73.6,13z"/>
		<path class="st0" d="M50.3,25.9h9c0.7,0,1.3,0.6,1.3,1.3v1.3h2.6v-1.3c0-2.1-1.7-3.9-3.9-3.9h-9c-0.7,0-1.3-0.6-1.3-1.3
			c0-0.7,0.6-1.3,1.3-1.3h7.7v-2.6h-2.6c-2.1,0-3.9-1.7-3.9-3.9s1.7-3.9,3.9-3.9h3.9V7.9h-3.9c-3.6,0-6.4,2.9-6.4,6.4
			c0,1.5,0.5,2.8,1.3,3.9h0c-2.1,0-3.9,1.7-3.9,3.9S48.2,25.9,50.3,25.9z"/>
		<path class="st0" d="M38.7,36.2h2.6v2.6h-2.6V36.2z"/>
		<path class="st0" d="M28.4,36.2H31v2.6h-2.6V36.2z"/>
		<path class="st0" d="M23.3,36.2h2.6v2.6h-2.6V36.2z"/>
		<path class="st0" d="M33.6,36.2h2.6v2.6h-2.6V36.2z"/>
		<path class="st0" d="M33.6,41.4h2.6v2.6h-2.6V41.4z"/>
		<path class="st0" d="M38.7,41.4h2.6v2.6h-2.6V41.4z"/>
		<path class="st0" d="M33.6,46.5h2.6v2.6h-2.6V46.5z"/>
		<path class="st0" d="M38.7,46.5h2.6v2.6h-2.6V46.5z"/>
	</g>
</g>
</svg>
