<?xml version="1.0" encoding="utf-8"?>
<!-- Generator: Adobe Illustrator 24.1.3, SVG Export Plug-In . SVG Version: 6.00 Build 0)  -->
<svg version="1.1" id="Capa_1" xmlns="http://www.w3.org/2000/svg"  xmlns:xlink="http://www.w3.org/1999/xlink" x="0px" y="0px"
	 viewBox="0 0 210 48" style="enable-background:new 0 0 210 48;" xml:space="preserve">
<style type="text/css"  >
	.st0{fill:#FFFFFF;}
	.st1{fill:#F4C100;}
</style>

<path class="st0" d="M172.3,15.2c0-4.5-3.7-8.1-8.2-8.1h-18.8c-4.5,0-8.2,3.6-8.2,8.1v23.7c0,0.9,0.7,1.6,1.6,1.6h5
	c0.9,0,1.6-0.7,1.6-1.6v-8.7h18.8v8.7c0,0.9,0.7,1.6,1.6,1.6h5c0.9,0,1.6-0.7,1.6-1.6V15.2z M155.3,22.1h-10v-5.4
	c0-0.9,0.7-1.6,1.6-1.6h15.6c0.9,0,1.6,0.7,1.6,1.6v5.4H155.3z"/>
<path class="st0" d="M88.8,7.1l-25.3,0c-4.5,0-8.3,3.6-8.3,8.1v4.5c0,4.5,3.7,8.1,8.2,8.1h17.2c0.9,0,1.6,0.6,1.6,1.5v1.4
	c0,0.9-0.7,1.8-1.6,1.8H56.8c-0.9,0-1.6,0.7-1.6,1.6v5c0,0.9,0.7,1.6,1.6,1.6h25.4c4.5,0,8.2-3.6,8.2-8.1v-4.7c0-4.5-3.7-8-8.2-8H65
	c-0.9,0-1.6-0.7-1.6-1.6v-1.4c0-0.9,0.7-1.6,1.6-1.6h23.8c0.9,0,1.6-0.7,1.6-1.6v-5C90.4,7.8,89.7,7.1,88.8,7.1z"/>
<path class="st0" d="M134.6,8.6c0-0.9-0.7-1.6-1.6-1.6h-8.1h-19.7c-0.9,0-1.6,0.7-1.6,1.6v4.9c0,0.9,0.7,1.6,1.6,1.6h9.9l0,23.8
	c0,0.9,0.7,1.6,1.6,1.6h5c0.9,0,1.6-0.7,1.6-1.6V15.2h9.8c0.9,0,1.6-0.7,1.6-1.6V8.6z"/>
<path class="st0" d="M99.5,7.1h-5c-0.9,0-1.6,0.7-1.6,1.6v30.2c0,0.9,0.7,1.6,1.6,1.6h5c0.9,0,1.6-0.7,1.6-1.6V8.7
	C101.1,7.8,100.4,7.1,99.5,7.1z"/>
<path class="st0" d="M210,15.3c0-4.5-3.7-8.1-8.2-8.1h-25.4c-0.9,0-1.6,0.7-1.6,1.6v30.3c0,0.9,0.7,1.6,1.6,1.6h25.4
	c4.5,0,8.2-3.6,8.2-8.1V15.3z M201.8,31c0,0.9-0.7,1.6-1.6,1.6H183V15.3h17.2c0.9,0,1.6,1.3,1.6,2.1V31z"/>
<path class="st1" d="M48.6,22.9c0-0.4,0-0.7,0-1.1c0-1.1-0.3-1.4-1.4-1.6c-1.1-0.2-2.2-0.4-3.4-0.5c-0.1,0-0.2,0-0.2,0
	c-0.3-0.1-0.6-0.4-0.7-0.6c-0.6-1.4-1.2-2.9-1.9-4.4c-0.2-0.4-0.2-0.7,0.1-1.1c0.7-0.9,1.3-1.8,2-2.7c0.5-0.7,0.5-1.4-0.1-2
	c-1.1-1.1-2.2-2.2-3.3-3.3c-0.6-0.6-1.3-0.7-2-0.1c-0.9,0.7-1.9,1.3-2.8,2.1c-0.4,0.3-0.7,0.2-1.1,0.1c-1.5-0.6-2.9-1.2-4.4-1.8
	c-0.3-0.1-0.6-0.4-0.6-0.7c-0.2-1.2-0.4-2.4-0.6-3.6C28,0.3,27.6,0,26.6,0c-1.5,0-3.1,0-4.6,0c-1,0-1.4,0.3-1.5,1.3
	c-0.2,1.2-0.4,2.4-0.6,3.6c-0.1,0.3-0.4,0.6-0.6,0.7c-1.5,0.6-2.9,1.2-4.4,1.8c-0.4,0.2-0.7,0.2-1.1-0.1c-1-0.7-2-1.3-2.9-2
	C10.1,4.9,9.6,5,9,5.5C7.9,6.6,6.8,7.6,5.7,8.7C4.9,9.4,4.9,10,5.5,10.8c0.7,0.9,1.4,1.8,2.1,2.7c0.3,0.3,0.3,0.5,0.1,1
	c-0.7,1.4-1.3,2.8-1.8,4.3c-0.1,0.3-0.2,0.6-0.5,0.7c-0.1,0.1-0.2,0.1-0.4,0.1c-1.2,0.1-2.3,0.3-3.5,0.5C0.3,20.3,0,20.7,0,21.8
	c0,1.1,0,2.3,0,3.4c0,0.4,0,0.7,0,1.1c0,1.1,0.3,1.4,1.4,1.6c1.1,0.2,2.2,0.4,3.4,0.5c0.1,0,0.2,0,0.2,0c0.3,0.1,0.6,0.4,0.7,0.6
	c0.6,1.4,1.2,2.9,1.9,4.4c0.2,0.4,0.2,0.7-0.1,1.1c-0.7,0.9-1.3,1.8-2,2.7c-0.5,0.7-0.5,1.4,0.1,2c1.1,1.1,2.2,2.2,3.3,3.3
	c0.6,0.6,1.3,0.7,2,0.1c0.9-0.7,1.9-1.3,2.8-2.1c0.4-0.3,0.7-0.2,1.1-0.1c1.5,0.6,2.9,1.2,4.4,1.8c0.3,0.1,0.6,0.4,0.6,0.7
	c0.2,1.2,0.4,2.4,0.6,3.6c0.2,1,0.5,1.3,1.5,1.3c1.5,0,3.1,0,4.6,0c1,0,1.4-0.3,1.5-1.3c0.2-1.2,0.4-2.4,0.6-3.6
	c0.1-0.3,0.4-0.6,0.6-0.7c1.5-0.6,2.9-1.2,4.4-1.8c0.4-0.2,0.7-0.2,1.1,0.1c1,0.7,2,1.3,2.9,2c0.6,0.4,1.2,0.4,1.8-0.1
	c1.1-1.1,2.2-2.1,3.3-3.2c0.8-0.7,0.8-1.3,0.2-2.2c-0.7-0.9-1.4-1.8-2.1-2.7c-0.3-0.3-0.3-0.5-0.1-1c0.7-1.4,1.3-2.8,1.8-4.3
	c0.1-0.3,0.2-0.6,0.5-0.7c0.1-0.1,0.2-0.1,0.4-0.1c1.2-0.1,2.3-0.3,3.5-0.5c1.1-0.2,1.4-0.5,1.4-1.6C48.6,25.1,48.6,24,48.6,22.9z"
	/>
<g>
	<path d="M33,13.8c0.3,0,0.5,0.1,0.7,0.3c0.2,0.2,0.3,0.4,0.3,0.7v11.9c0,0.9-0.2,1.8-0.5,2.6c-0.4,0.9-0.8,1.7-1.3,2.3
		c-0.5,0.7-1.1,1.3-1.9,2c-0.7,0.6-1.4,1.2-2,1.6c-0.6,0.4-1.2,0.8-1.9,1.2c-0.7,0.4-1.1,0.6-1.4,0.8c-0.3,0.1-0.5,0.2-0.7,0.3
		c-0.1,0.1-0.3,0.1-0.4,0.1c-0.1,0-0.3,0-0.4-0.1c-0.2-0.1-0.4-0.2-0.7-0.3c-0.3-0.1-0.7-0.4-1.4-0.8c-0.7-0.4-1.3-0.8-1.9-1.2
		c-0.6-0.4-1.3-1-2-1.6c-0.7-0.6-1.3-1.3-1.9-2c-0.5-0.7-1-1.5-1.3-2.3c-0.4-0.9-0.5-1.8-0.5-2.6V14.8c0-0.3,0.1-0.5,0.3-0.7
		c0.2-0.2,0.4-0.3,0.7-0.3H33 M33,11.6H14.9c-0.9,0-1.7,0.3-2.3,1c-0.6,0.6-1,1.4-1,2.3v11.9c0,1.2,0.2,2.3,0.7,3.5
		c0.4,1.1,1,2,1.6,2.9c0.6,0.8,1.3,1.6,2.1,2.3c0.8,0.7,1.5,1.3,2.2,1.8c0.7,0.5,1.4,0.9,2.1,1.3c0.7,0.4,1.2,0.7,1.5,0.8
		c0.3,0.1,0.5,0.3,0.7,0.3c0.4,0.2,0.9,0.3,1.4,0.3c0.5,0,0.9-0.1,1.4-0.3c0.2-0.1,0.4-0.2,0.7-0.3c0.3-0.2,0.8-0.4,1.5-0.8
		c0.7-0.4,1.4-0.9,2.1-1.3c0.7-0.5,1.4-1.1,2.2-1.8c0.8-0.7,1.5-1.5,2.1-2.3c0.6-0.8,1.2-1.8,1.6-2.9c0.5-1.1,0.7-2.3,0.7-3.5V14.8
		c0-0.9-0.3-1.7-1-2.3C34.7,11.9,33.9,11.6,33,11.6L33,11.6z"/>
</g>
<path d="M29.3,24c0.1-0.2,0.1-0.3,0-0.5c-0.1-0.2-0.3-0.2-0.5-0.2h-4.6l0-7.4c0-0.3-0.1-0.5-0.4-0.6c-0.1,0-0.1,0-0.2,0
	c-0.2,0-0.4,0.1-0.5,0.3l-4,10.8c-0.1,0.2-0.1,0.4,0,0.5c0.1,0.2,0.3,0.3,0.5,0.3h4.6l0,7.2c0,0.3,0.1,0.5,0.4,0.5
	c0.1,0,0.1,0,0.2,0c0.2,0,0.4-0.1,0.5-0.3L29.3,24z"/>

	
</svg>
