<?xml version="1.0" encoding="utf-8"?>
<!-- Generator: Adobe Illustrator 24.1.3, SVG Export Plug-In . SVG Version: 6.00 Build 0)  -->
<svg version="1.1" id="Capa_1" xmlns="http://www.w3.org/2000/svg" xmlns:xlink="http://www.w3.org/1999/xlink" x="0px" y="0px"
	 viewBox="0 0 94 94" style="enable-background:new 0 0 94 94;" xml:space="preserve">
<style type="text/css">
	.st0{fill:#F9B200;}
</style>
<g>
	<path class="st0" d="M88.3,84c-2.4,0-4.4,2-4.4,4.4s2,4.4,4.4,4.4c2.4,0,4.4-2,4.4-4.4S90.8,84,88.3,84z M88.3,89.9
		c-0.8,0-1.5-0.7-1.5-1.5c0-0.8,0.7-1.5,1.5-1.5c0.8,0,1.5,0.7,1.5,1.5C89.8,89.2,89.2,89.9,88.3,89.9z"/>
	<path class="st0" d="M10.1,5.6c0-2.4-2-4.4-4.4-4.4s-4.4,2-4.4,4.4s2,4.4,4.4,4.4S10.1,8,10.1,5.6z M4.2,5.6c0-0.8,0.7-1.5,1.5-1.5
		s1.5,0.7,1.5,1.5S6.5,7,5.7,7S4.2,6.4,4.2,5.6z"/>
	<path class="st0" d="M80.5,58.8l-2.9-5.7c0.6-1.2,1.1-2.5,1.6-3.7l6.2-2V30.7l-6.2-2c-0.4-1.2-1-2.5-1.6-3.7l2.9-5.7L68.6,7.4
		l-5.8,2.9c-1.3-0.6-2.5-1.1-3.8-1.6l-2.1-6.1H40L38,8.8c-1.3,0.4-2.5,0.9-3.8,1.6l-5.8-2.9L16.4,19.2l2.9,5.7
		c-0.6,1.2-1.1,2.5-1.6,3.7l-6.2,2v16.6l6.2,2c0.4,1.2,1,2.5,1.6,3.7l-1.9,3.4H8.6v29.1h10.3v-4.4h11.2l4.4,4.4h8V87
		c0,3.2,2.6,5.8,5.9,5.8c3.3,0,5.9-2.6,5.9-5.8v-1.5h10.3c2.4,0,4.4-2,4.4-4.4c0-1.1-0.4-2.1-1.2-2.9c0.7-0.8,1.2-1.8,1.2-2.9
		c0-1.1-0.4-2.1-1.2-2.9c0.6-0.6,0.9-1.4,1.1-2.2L80.5,58.8z M22.3,52.4c-0.8-1.5-1.5-3.1-2-4.6l-0.2-0.7l-5.6-1.8V32.8l5.6-1.8
		l0.2-0.7c0.5-1.5,1.2-3.1,2-4.6l0.3-0.7L20,19.8l8.9-8.8l5.3,2.6l0.7-0.3c1.6-0.8,3.1-1.5,4.7-1.9l0.7-0.2l1.9-5.5h12.6l1.9,5.5
		l0.7,0.2c1.6,0.5,3.1,1.1,4.7,1.9l0.7,0.3L68,11l8.9,8.8L74.3,25l0.3,0.7c0.8,1.5,1.5,3.1,2,4.6l0.2,0.7l5.6,1.8v12.4l-5.6,1.8
		l-0.2,0.7c-0.5,1.5-1.2,3.1-2,4.6l-0.3,0.7l2.6,5.2l-8.7,8.7c-0.1-0.1-0.2-0.2-0.2-0.3c0.7-0.8,1.2-1.8,1.2-2.9
		c0-2.3-1.8-4.1-4-4.3c6.3-4.9,9.9-12.4,9.9-20.4c0-14.4-11.9-26.2-26.6-26.2S21.9,24.6,21.9,39c0,7.9,3.7,15.4,9.9,20.3H19.2
		l3.5-6.3L22.3,52.4z M66.2,75.3c0,0.8-0.7,1.5-1.5,1.5H52.9c-0.8,0-1.5-0.7-1.5-1.5c0-0.8,0.7-1.5,1.5-1.5h11.8
		C65.5,73.9,66.2,74.5,66.2,75.3z M44.9,39H52l2.3-2.3v-6.4c1.6,0,3,1.3,3,2.9v6.7l-5,5h-7.6l-5-5v-6.7c0-1.6,1.3-2.9,3-2.9v6.4
		L44.9,39z M45.5,47.7h5.9v5.8h-5.9V47.7z M54.4,46.9l5.9-5.8v-7.9c0-3.2-2.6-5.8-5.9-5.8h-3v8.1l-0.6,0.6h-4.7l-0.6-0.6v-8.1h-3
		c-3.3,0-5.9,2.6-5.9,5.8v7.9l5.9,5.8v6.7H39l-0.1,0.1c-5-3.2-8.2-8.7-8.2-14.6c0-9.6,7.9-17.4,17.7-17.4S66.2,29.4,66.2,39
		c0,5.9-3,11.3-8,14.5h-3.8V46.9z M69.1,39c0-11.2-9.3-20.3-20.7-20.3S27.8,27.8,27.8,39c0,6.7,3.4,13,9,16.7l-2.1,2.1
		c-6.1-4.4-9.8-11.4-9.8-18.8c0-12.8,10.6-23.2,23.6-23.2S72.1,26.2,72.1,39c0,7.2-3.3,13.8-8.9,18.2c-0.2-1-0.7-1.9-1.5-2.6
		C66.4,50.8,69.1,45.1,69.1,39z M64.7,62.3c0.8,0,1.5,0.7,1.5,1.5c0,0.8-0.7,1.5-1.5,1.5H52.9c-0.8,0-1.5-0.7-1.5-1.5
		c0-0.8,0.7-1.5,1.5-1.5H64.7z M52.9,71c-0.8,0-1.5-0.7-1.5-1.5c0-0.8,0.7-1.5,1.5-1.5h11.8c0.8,0,1.5,0.7,1.5,1.5
		c0,0.8-0.7,1.5-1.5,1.5H52.9z M16,82.6h-4.4V59.3H16V82.6z M35.8,82.6l-4.4-4.4H18.9v-16h15.4l5.9-5.8h18.6c0.8,0,1.5,0.7,1.5,1.5
		s-0.7,1.5-1.5,1.5H43.4l-6.3,6.2l2.1,2.1l3.4-3.3v18.3H35.8z M48.5,89.9c-1.6,0-3-1.3-3-2.9V62.3h3.2c-0.2,0.5-0.3,0.9-0.3,1.5
		c0,1.1,0.4,2.1,1.2,2.9c-0.7,0.8-1.2,1.8-1.2,2.9c0,1.1,0.4,2.1,1.2,2.9c-0.7,0.8-1.2,1.8-1.2,2.9c0,1.1,0.4,2.1,1.2,2.9
		c-0.7,0.8-1.2,1.8-1.2,2.9c0,1.9,1.2,3.5,3,4.1V87C51.4,88.6,50.1,89.9,48.5,89.9z M64.7,82.6H52.9c-0.8,0-1.5-0.7-1.5-1.5
		c0-0.8,0.7-1.5,1.5-1.5h11.8c0.8,0,1.5,0.7,1.5,1.5C66.2,81.9,65.5,82.6,64.7,82.6z"/>
	<path class="st0" d="M4.2,14.3h3v2.9h-3V14.3z"/>
	<path class="st0" d="M4.2,21.6h3v2.9h-3V21.6z"/>
	<path class="st0" d="M4.2,28.8h3v2.9h-3V28.8z"/>
	<path class="st0" d="M86.9,62.3h3v2.9h-3V62.3z"/>
	<path class="st0" d="M86.9,69.5h3v2.9h-3V69.5z"/>
	<path class="st0" d="M86.9,76.8h3v2.9h-3V76.8z"/>
</g>
</svg>
