<?xml version="1.0" encoding="utf-8"?>
<!-- Generator: Adobe Illustrator 24.1.3, SVG Export Plug-In . SVG Version: 6.00 Build 0)  -->
<svg version="1.1" id="Capa_1" xmlns="http://www.w3.org/2000/svg" xmlns:xlink="http://www.w3.org/1999/xlink" x="0px" y="0px"
	 viewBox="0 0 44.2 44.5" style="enable-background:new 0 0 44.2 44.5;" xml:space="preserve">
<style type="text/css">
	.st0{fill:none;}
	.st1{fill:#3D3D3D;}
</style>
<path class="st0" d="M7.9,44.5C7.9,44.5,8,44.5,7.9,44.5C8,44.6,8,44.6,8,44.6L8.4,45h14.9c-0.3-0.1-0.5-0.3-0.7-0.5H7.9z"/>
<path class="st0" d="M2.5,44.5H0V0h-17.1v45H2.1c0.1-0.1,0.2-0.3,0.3-0.4C2.4,44.5,2.5,44.5,2.5,44.5z"/>
<path class="st0" d="M68.9,0H44.2v44.5H27.9c-0.2,0.2-0.5,0.4-0.8,0.5h41.8V0z"/>
<path class="st1" d="M2.5,44.5h5.4C6.4,43.1,4,43.1,2.5,44.5z"/>
<path class="st1" d="M2.4,0.1c-1.6,1.6-1.6,4.1,0,5.7L17,20.4c0,0,0,0,0,0c1.6,1.5,4.1,1.5,5.6,0c1.6-1.6,1.6-4.1,0-5.7L8,0.1
	c0,0,0,0,0,0c0,0,0,0-0.1,0L2.4,0.1C2.5,0,2.4,0,2.4,0.1z"/>
<path class="st1" d="M42.8,30c1.6-1.5,1.6-4.1,0.1-5.7c0,0,0,0,0,0c-1.5-1.6-4-1.6-5.6-0.1L22.5,38.6c-1.6,1.5-1.6,4.1-0.1,5.7
	c0,0,0,0,0,0c0.1,0.1,0.1,0.1,0.2,0.2h5.3c0,0,0.1,0,0.1-0.1L42.8,30z"/>
<path class="st1" d="M27.8,0h-5.2C24.1,1.3,26.3,1.3,27.8,0z"/>
</svg>
