<?xml version="1.0" encoding="utf-8"?>
<!-- Generator: Adobe Illustrator 24.1.3, SVG Export Plug-In . SVG Version: 6.00 Build 0)  -->
<svg version="1.1" id="Capa_1" xmlns="http://www.w3.org/2000/svg" xmlns:xlink="http://www.w3.org/1999/xlink" x="0px" y="0px"
	 viewBox="0 0 94 94" style="enable-background:new 0 0 94 94;" xml:space="preserve">
<style type="text/css">
	.st0{fill:#F9B200;}
</style>
<g>
	<g>
		<g>
			<path class="st0" d="M42.4,74.3H27.3c-0.8,0-1.5,0.7-1.5,1.5V85c0,0.8,0.7,1.5,1.5,1.5h15.2c0.8,0,1.5-0.7,1.5-1.5v-9.1
				C44,75,43.3,74.3,42.4,74.3z M40.9,83.4H28.8v-6.1h12.1V83.4z"/>
		</g>
	</g>
	<g>
		<g>
			<rect x="33.3" y="85" class="st0" width="3" height="6.1"/>
		</g>
	</g>
	<g>
		<g>
			<rect x="30.3" y="89.5" class="st0" width="9.1" height="3"/>
		</g>
	</g>
	<g>
		<g>
			<path class="st0" d="M18.1,74.3H3c-0.8,0-1.5,0.7-1.5,1.5V85c0,0.8,0.7,1.5,1.5,1.5h15.2c0.8,0,1.5-0.7,1.5-1.5v-9.1
				C19.7,75,19,74.3,18.1,74.3z M16.6,83.4H4.5v-6.1h12.1L16.6,83.4L16.6,83.4z"/>
		</g>
	</g>
	<g>
		<g>
			<rect x="9" y="85" class="st0" width="3" height="6.1"/>
		</g>
	</g>
	<g>
		<g>
			<rect x="6" y="89.5" class="st0" width="9.1" height="3"/>
		</g>
	</g>
	<g>
		<g>
			<path class="st0" d="M66.7,74.3H51.6c-0.8,0-1.5,0.7-1.5,1.5V85c0,0.8,0.7,1.5,1.5,1.5h15.2c0.8,0,1.5-0.7,1.5-1.5v-9.1
				C68.3,75,67.6,74.3,66.7,74.3z M65.2,83.4H53.1v-6.1h12.1V83.4z"/>
		</g>
	</g>
	<g>
		<g>
			<rect x="57.6" y="85" class="st0" width="3" height="6.1"/>
		</g>
	</g>
	<g>
		<g>
			<rect x="54.6" y="89.5" class="st0" width="9.1" height="3"/>
		</g>
	</g>
	<g>
		<g>
			<path class="st0" d="M91,74.3H75.9c-0.8,0-1.5,0.7-1.5,1.5V85c0,0.8,0.7,1.5,1.5,1.5H91c0.8,0,1.5-0.7,1.5-1.5v-9.1
				C92.6,75,91.9,74.3,91,74.3z M89.5,83.4H77.4v-6.1h12.1V83.4z"/>
		</g>
	</g>
	<g>
		<g>
			<rect x="81.9" y="85" class="st0" width="3" height="6.1"/>
		</g>
	</g>
	<g>
		<g>
			<rect x="78.9" y="89.5" class="st0" width="9.1" height="3"/>
		</g>
	</g>
	<g>
		<g>
			<path class="st0" d="M42.4,1.4H27.3c-0.8,0-1.5,0.7-1.5,1.5v9.1c0,0.8,0.7,1.5,1.5,1.5h15.2c0.8,0,1.5-0.7,1.5-1.5V3
				C44,2.1,43.3,1.4,42.4,1.4z M40.9,10.6H28.8V4.5h12.1V10.6z"/>
		</g>
	</g>
	<g>
		<g>
			<rect x="33.3" y="12.1" class="st0" width="3" height="6.1"/>
		</g>
	</g>
	<g>
		<g>
			<rect x="30.3" y="16.6" class="st0" width="9.1" height="3"/>
		</g>
	</g>
	<g>
		<g>
			<path class="st0" d="M18.1,1.4H3C2.1,1.4,1.4,2.1,1.4,3v9.1c0,0.8,0.7,1.5,1.5,1.5h15.2c0.8,0,1.5-0.7,1.5-1.5V3
				C19.7,2.1,19,1.4,18.1,1.4z M16.6,10.6H4.5V4.5h12.1L16.6,10.6L16.6,10.6z"/>
		</g>
	</g>
	<g>
		<g>
			<rect x="9" y="12.1" class="st0" width="3" height="6.1"/>
		</g>
	</g>
	<g>
		<g>
			<rect x="6" y="16.6" class="st0" width="9.1" height="3"/>
		</g>
	</g>
	<g>
		<g>
			<path class="st0" d="M66.7,1.4H51.6C50.7,1.4,50,2.1,50,3v9.1c0,0.8,0.7,1.5,1.5,1.5h15.2c0.8,0,1.5-0.7,1.5-1.5V3
				C68.3,2.1,67.6,1.4,66.7,1.4z M65.2,10.6H53.1V4.5h12.1V10.6z"/>
		</g>
	</g>
	<g>
		<g>
			<rect x="57.6" y="12.1" class="st0" width="3" height="6.1"/>
		</g>
	</g>
	<g>
		<g>
			<rect x="54.6" y="16.6" class="st0" width="9.1" height="3"/>
		</g>
	</g>
	<g>
		<g>
			<path class="st0" d="M91,1.4H75.9c-0.8,0-1.5,0.7-1.5,1.5v9.1c0,0.8,0.7,1.5,1.5,1.5H91c0.8,0,1.5-0.7,1.5-1.5V3
				C92.6,2.1,91.9,1.4,91,1.4z M89.5,10.6H77.4V4.5h12.1V10.6z"/>
		</g>
	</g>
	<g>
		<g>
			<rect x="81.9" y="12.1" class="st0" width="3" height="6.1"/>
		</g>
	</g>
	<g>
		<g>
			<rect x="78.9" y="16.6" class="st0" width="9.1" height="3"/>
		</g>
	</g>
	<g>
		<g>
			<path class="st0" d="M66.7,37.9H27.3c-0.8,0-1.5,0.7-1.5,1.5v15.2c0,0.8,0.7,1.5,1.5,1.5h39.5c0.8,0,1.5-0.7,1.5-1.5V39.4
				C68.3,38.6,67.6,37.9,66.7,37.9z M65.2,53.1H28.8V40.9h36.4L65.2,53.1L65.2,53.1z"/>
		</g>
	</g>
	<g>
		<g>
			<path class="st0" d="M33.7,30.3l-21.7-5.8v-1.9H9v3c0,0.7,0.5,1.3,1.1,1.5L31.8,33v6.4h3v-7.6C34.9,31.1,34.4,30.5,33.7,30.3z"/>
		</g>
	</g>
	<g>
		<g>
			<path class="st0" d="M43,27.4l-6.6-2.7v-2h-3v3c0,0.6,0.4,1.2,1,1.4l6.6,2.7v9.6h3V28.8C44,28.2,43.6,27.6,43,27.4z"/>
		</g>
	</g>
	<g>
		<g>
			<path class="st0" d="M81.9,22.7v1.9l-21.7,5.8c-0.7,0.2-1.1,0.8-1.1,1.5v7.6h3V33l21.7-5.8c0.7-0.2,1.1-0.8,1.1-1.5v-3L81.9,22.7
				L81.9,22.7z"/>
		</g>
	</g>
	<g>
		<g>
			<path class="st0" d="M57.6,22.7v2L51,27.4c-0.6,0.2-1,0.8-1,1.4v10.6h3v-9.6l6.6-2.7c0.6-0.2,1-0.8,1-1.4v-3
				C60.7,22.7,57.6,22.7,57.6,22.7z"/>
		</g>
	</g>
	<g>
		<g>
			<path class="st0" d="M83.8,66.8L62.2,61v-6.4h-3v7.6c0,0.7,0.5,1.3,1.1,1.5l21.7,5.8v1.9h3v-3C85,67.6,84.5,67,83.8,66.8z"/>
		</g>
	</g>
	<g>
		<g>
			<path class="st0" d="M59.7,66.8l-6.6-2.7v-9.6h-3v10.6c0,0.6,0.4,1.2,1,1.4l6.6,2.7v2h3v-3C60.7,67.6,60.3,67.1,59.7,66.8z"/>
		</g>
	</g>
	<g>
		<g>
			<path class="st0" d="M31.8,54.6V61l-21.7,5.8C9.5,67,9,67.6,9,68.3v3h3v-1.9l21.7-5.8c0.7-0.2,1.1-0.8,1.1-1.5v-7.6H31.8z"/>
		</g>
	</g>
	<g>
		<g>
			<path class="st0" d="M40.9,54.6v9.6l-6.6,2.7c-0.6,0.2-1,0.8-1,1.4v3h3v-2l6.6-2.7c0.6-0.2,1-0.8,1-1.4V54.6L40.9,54.6L40.9,54.6
				z"/>
		</g>
	</g>
	<g>
		<g>
			<rect x="39.4" y="45.5" class="st0" width="3" height="3"/>
		</g>
	</g>
	<g>
		<g>
			<rect x="45.5" y="45.5" class="st0" width="3" height="3"/>
		</g>
	</g>
	<g>
		<g>
			<rect x="51.6" y="45.5" class="st0" width="3" height="3"/>
		</g>
	</g>
	<g>
	</g>
	<g>
	</g>
	<g>
	</g>
	<g>
	</g>
	<g>
	</g>
	<g>
	</g>
	<g>
	</g>
	<g>
	</g>
	<g>
	</g>
	<g>
	</g>
	<g>
	</g>
	<g>
	</g>
	<g>
	</g>
	<g>
	</g>
	<g>
	</g>
</g>
</svg>
