<?xml version="1.0" encoding="UTF-8"?>
<svg xmlns="http://www.w3.org/2000/svg" id="Line" width="512" height="512" viewBox="0 0 512 512"><g><path d="M504,136a8,8,0,0,0,8-8V96a8,8,0,0,0-8-8h-8V24a8,8,0,0,0-8-8H375.889A18.025,18.025,0,0,0,358,0H154a18.025,18.025,0,0,0-17.889,16H96V32h40V88H32V32H80V16H24a8,8,0,0,0-8,8V88H8a8,8,0,0,0-8,8v32a8,8,0,0,0,8,8v16a55.666,55.666,0,0,0,8.109,29H16V464H8a8,8,0,0,0-8,8v32a8,8,0,0,0,8,8h96V496H16V480H496v16H120v16H504a8,8,0,0,0,8-8V472a8,8,0,0,0-8-8h-8V304H480V464H464V232a8,8,0,0,0-8-8H328a8,8,0,0,0-8,8V424H304V232a8,8,0,0,0-8-8H56a8,8,0,0,0-8,8v40H64V240H288V424H64V288H48V424H32V197.934a55.947,55.947,0,0,0,80-17.114,56.042,56.042,0,0,0,95.99.144,56.124,56.124,0,0,0,96.016-.034A56.027,56.027,0,0,0,400,180.82a55.947,55.947,0,0,0,80,17.114V288h16V181h-.109A55.666,55.666,0,0,0,504,152ZM376,120V104H496v16ZM480,88H376V32H480ZM152,18a2,2,0,0,1,2-2H358a2,2,0,0,1,2,2V150a2,2,0,0,1-2,2H154a2,2,0,0,1-2-2ZM16,104H136v16H16ZM336,464V408H448v56Zm0-88H448v16H336ZM448,240V360H336V240ZM320,440v24H32V440ZM64,192a40.045,40.045,0,0,1-40-40V136h80v16A40.045,40.045,0,0,1,64,192Zm96,0a40.045,40.045,0,0,1-40-40V136h16v14a18.021,18.021,0,0,0,18,18h42.7A39.878,39.878,0,0,1,160,192Zm96,0a39.807,39.807,0,0,1-36.7-24h73.4A39.893,39.893,0,0,1,256,192Zm96,0a39.94,39.94,0,0,1-36.69-24H358a18.021,18.021,0,0,0,18-18V136h16v16A40.045,40.045,0,0,1,352,192Zm96,0a40.045,40.045,0,0,1-40-40V136h80v16A40.045,40.045,0,0,1,448,192Z"/><path d="M200.239,129.94A8,8,0,0,0,208,136h96a8,8,0,0,0,7.761-6.06L326.246,72H336V56H300.215l10.837-20.221-14.1-7.558L282.062,56H229.938L215.052,28.221l-14.1,7.558L211.785,56H176V72h9.754ZM297.754,120H214.246l-12-48H309.754Z"/><rect x="232" y="88" width="48" height="16"/><rect x="84.118" y="312" width="135.765" height="16" transform="translate(-181.76 201.22) rotate(-45.002)"/><rect x="141.775" y="340" width="124.451" height="16" transform="translate(-186.327 246.193) rotate(-45.002)"/></g></svg>
