<?xml version="1.0" encoding="utf-8"?>
<!-- Generator: Adobe Illustrator 24.1.3, SVG Export Plug-In . SVG Version: 6.00 Build 0)  -->
<svg version="1.1" id="Capa_1" xmlns="http://www.w3.org/2000/svg" xmlns:xlink="http://www.w3.org/1999/xlink" x="0px" y="0px"
	 viewBox="0 0 94 94" style="enable-background:new 0 0 94 94;" xml:space="preserve">
<style type="text/css">
	.st0{fill:#F9B200;}
</style>
<g>
	<g id="outline_1_">
		<path class="st0" d="M9.1,93.2h75.9c2.6,0,4.7-2.1,4.7-4.6V5.4c0-2.6-2.1-4.6-4.7-4.6H9.1c-2.6,0-4.7,2.1-4.7,4.6v83.2
			C4.3,91.2,6.4,93.2,9.1,93.2z M7.5,5.4c0-0.9,0.7-1.5,1.6-1.5h75.9c0.9,0,1.6,0.7,1.6,1.5v32.4h-79V5.4z M7.5,40.8h79v47.8
			c0,0.9-0.7,1.5-1.6,1.5H9.1c-0.9,0-1.6-0.7-1.6-1.5V40.8z"/>
		<path class="st0" d="M13.8,60.9c0,0.9,0.7,1.5,1.6,1.5H17v7.7c0,0.9,0.7,1.5,1.6,1.5h6.3c0.9,0,1.6-0.7,1.6-1.5v-7.7h3.2v7.7
			c0,0.9,0.7,1.5,1.6,1.5h6.3c0.9,0,1.6-0.7,1.6-1.5v-7.7h3.2v7.7c0,0.9,0.7,1.5,1.6,1.5h6.3c0.9,0,1.6-0.7,1.6-1.5v-7.7h3.2v7.7
			c0,0.9,0.7,1.5,1.6,1.5h6.3c0.9,0,1.6-0.7,1.6-1.5v-7.7h3.2v7.7c0,0.9,0.7,1.5,1.6,1.5h6.3c0.9,0,1.6-0.7,1.6-1.5v-7.7h1.6
			c0.9,0,1.6-0.7,1.6-1.5v-6.2c0-0.9-0.7-1.5-1.6-1.5H77v-7.7c0-0.9-0.7-1.5-1.6-1.5h-6.3c-0.9,0-1.6,0.7-1.6,1.5v7.7h-3.2v-7.7
			c0-0.9-0.7-1.5-1.6-1.5h-6.3c-0.9,0-1.6,0.7-1.6,1.5v7.7h-3.2v-7.7c0-0.9-0.7-1.5-1.6-1.5h-6.3c-0.9,0-1.6,0.7-1.6,1.5v7.7h-3.2
			v-7.7c0-0.9-0.7-1.5-1.6-1.5h-6.3c-0.9,0-1.6,0.7-1.6,1.5v7.7h-3.2v-7.7c0-0.9-0.7-1.5-1.6-1.5h-6.3c-0.9,0-1.6,0.7-1.6,1.5v7.7
			h-1.6c-0.9,0-1.6,0.7-1.6,1.5V60.9z M73.9,68.6h-3.2v-6.2h3.2V68.6z M70.7,47h3.2v6.2h-3.2V47z M67.5,56.2H77v3.1h-9.5V56.2z
			 M61.2,68.6h-3.2v-6.2h3.2V68.6z M58.1,47h3.2v6.2h-3.2V47z M54.9,56.2h9.5v3.1h-9.5V56.2z M48.6,68.6h-3.2v-6.2h3.2V68.6z
			 M45.4,47h3.2v6.2h-3.2V47z M42.3,56.2h9.5v3.1h-9.5V56.2z M35.9,68.6h-3.2v-6.2h3.2V68.6z M32.8,47h3.2v6.2h-3.2V47z M29.6,56.2
			h9.5v3.1h-9.5V56.2z M23.3,68.6h-3.2v-6.2h3.2V68.6z M20.1,47h3.2v6.2h-3.2V47z M17,56.2h9.5v3.1H17V56.2z"/>
		<path class="st0" d="M24.9,16.2h19c0.9,0,1.6-0.7,1.6-1.5V8.5c0-0.9-0.7-1.5-1.6-1.5h-19c-0.9,0-1.6,0.7-1.6,1.5v6.2
			C23.3,15.5,24,16.2,24.9,16.2z M26.5,10h15.8v3.1H26.5V10z"/>
		<path class="st0" d="M50.2,16.2h19c0.9,0,1.6-0.7,1.6-1.5V8.5c0-0.9-0.7-1.5-1.6-1.5h-19c-0.9,0-1.6,0.7-1.6,1.5v6.2
			C48.6,15.5,49.3,16.2,50.2,16.2z M51.7,10h15.8v3.1H51.7V10z"/>
		<path class="st0" d="M75.5,19.3H18.5c-0.9,0-1.6,0.7-1.6,1.5v12.3c0,0.9,0.7,1.5,1.6,1.5h56.9c0.9,0,1.6-0.7,1.6-1.5V20.8
			C77,20,76.3,19.3,75.5,19.3z M26.5,31.6h-6.3v-3.1h6.3V31.6z M26.5,25.4h-6.3v-3.1h6.3V25.4z M35.9,31.6h-6.3v-3.1h6.3V31.6z
			 M35.9,25.4h-6.3v-3.1h6.3V25.4z M45.4,31.6h-6.3v-3.1h6.3V31.6z M45.4,25.4h-6.3v-3.1h6.3V25.4z M54.9,31.6h-6.3v-3.1h6.3V31.6z
			 M54.9,25.4h-6.3v-3.1h6.3V25.4z M64.4,31.6h-6.3v-3.1h6.3V31.6z M64.4,25.4h-6.3v-3.1h6.3V25.4z M73.9,31.6h-6.3v-3.1h6.3V31.6z
			 M73.9,25.4h-6.3v-3.1h6.3V25.4z"/>
		<path class="st0" d="M10.6,25.4h3.2v3.1h-3.2V25.4z"/>
		<path class="st0" d="M10.6,31.6h3.2v3.1h-3.2V31.6z"/>
		<path class="st0" d="M17,8.5h3.2v6.2H17V8.5z"/>
		<path class="st0" d="M10.6,8.5h3.2v6.2h-3.2V8.5z"/>
		<path class="st0" d="M80.2,25.4h3.2v3.1h-3.2V25.4z"/>
		<path class="st0" d="M80.2,31.6h3.2v3.1h-3.2V31.6z"/>
		<path class="st0" d="M75.5,74.7H59.6c-0.9,0-1.6,0.7-1.6,1.5v9.2c0,0.9,0.7,1.5,1.6,1.5h15.8c0.9,0,1.6-0.7,1.6-1.5v-9.2
			C77,75.4,76.3,74.7,75.5,74.7z M73.9,84H61.2v-6.2h12.6V84z"/>
		<path class="st0" d="M80.2,84h3.2v3.1h-3.2V84z"/>
		<path class="st0" d="M80.2,43.9h3.2V47h-3.2V43.9z"/>
		<path class="st0" d="M10.6,43.9h3.2V47h-3.2V43.9z"/>
		<path class="st0" d="M10.6,84h3.2v3.1h-3.2V84z"/>
	</g>
</g>
</svg>
