<?xml version="1.0" encoding="utf-8"?>
<!-- Generator: Adobe Illustrator 24.1.3, SVG Export Plug-In . SVG Version: 6.00 Build 0)  -->
<svg version="1.1" id="Capa_1" xmlns="http://www.w3.org/2000/svg" xmlns:xlink="http://www.w3.org/1999/xlink" x="0px" y="0px"
	 viewBox="0 0 85.2 88.8" style="enable-background:new 0 0 85.2 88.8;" xml:space="preserve">
<style type="text/css">
	.st0{fill:#F9B30B;}
</style>
<path class="st0" d="M62.2,55.9c-0.7,7.8,0.3,15,6.7,20.4c3.5,2.9,7.6,4.4,12.1,4.5c1.9,0.1,2.7,0.8,2.7,2.8c0,0.8,0,1.5,0,2.3
	c0,2-0.8,2.8-2.8,2.8c-22.9,0-45.8,0-68.7,0c-2.7,0-5.4,0-8,0c-1.7,0-2.6-0.9-2.6-2.6c0-0.9,0-1.8,0-2.8c0-1.6,0.9-2.4,2.5-2.5
	c5.7-0.2,10.7-2.2,14.5-6.6c2.9-3.3,4.5-7.1,4.7-11.4c0.1-2.3,0-4.6,0-6.9c-1-0.1-2.1-0.2-3.1-0.4c-8.3-1.5-14.5-6.1-18-13.8
	c-3.6-7.9-3-15.7,1.8-23c4-6.1,9.8-9.6,17-10.6C21.6,8,21.9,7.8,22,7.3c0.9-2.6,3.1-4.2,5.9-4.2c9.9,0,19.8,0,29.6,0
	c2.7,0,4.9,1.7,5.8,4.2C63.4,7.6,63.8,8,64.1,8c4.5,0.3,8.3,2.2,11.8,5c4,3.2,6.9,7.1,8.3,12.1c3.1,10.6-0.9,21.7-10.9,27.5
	C69.9,54.6,67.9,55.2,62.2,55.9z M59.4,55.9c-11.2,0-22.2,0-33.3,0c0,1.8,0,3.5,0,5.3C26,69.6,22.4,76,15.3,80.4
	c-0.2,0.1-0.3,0.2-0.6,0.5c3.1,0,5.9,0,8.8,0c1.4,0,2.1,0.4,2.1,1.3c0,0.9-0.7,1.4-2.1,1.4c-6,0-12,0-18.1,0c-0.4,0-0.7,0-1.2,0
	c0,0.9,0,1.7,0,2.4c25.6,0,51.2,0,76.7,0c0-0.8,0-1.6,0-2.4c-0.4,0-0.8,0-1.2,0c-16.1,0-32.2,0-48.4,0c-1.4,0-2.1-0.4-2.1-1.3
	c0-0.9,0.7-1.3,2.1-1.3c12.7,0,25.5,0,38.2,0c0.3,0,0.6,0,0.8,0c-0.2-0.3-0.3-0.4-0.5-0.5c-4.5-2.7-7.6-6.6-9.4-11.5
	c-1.3-3.5-1.3-7.2-1.2-10.8C59.4,57.4,59.4,56.7,59.4,55.9z M53.6,52.7c-0.3-0.2-0.7-0.4-1-0.6c-2.2-1.4-4.2-3.2-5.8-5.2
	c-0.5-0.6-0.5-1.2,0-1.8c0.5-0.5,1.3-0.5,1.9,0.1c0.2,0.1,0.3,0.3,0.5,0.5c3,3.5,6.7,5.7,11.1,6.9c0.5,0.1,1,0.2,1.6,0.3
	c-7.7-5-12-11.8-12-21c0-9.2,4.3-16,12-20.9c-0.3,0-0.6,0-0.9,0.1c-5.1,1.2-9.2,3.8-12.4,7.9c-3.2,4.2-4.6,8.9-4.3,14.2
	c0.1,2.4,0.7,4.7,1.6,7c0.4,0.9,0,1.7-0.7,2c-0.7,0.2-1.4-0.2-1.7-1.1c-1.1-2.7-1.7-5.5-1.7-8.4c-0.1-8.2,3.1-14.9,9.6-19.9
	c0.8-0.6,1.6-1.1,2.5-1.7c-8.3,1.1-17.3,8.6-17.8,20C35.3,42.5,43.8,51.4,53.6,52.7z M28.7,52.8c-7.6-4.9-12-11.8-12-20.9
	c0-9.1,4.3-16,11.9-20.9c-1.9,0.3-3.8,0.7-5.4,1.7c-1.6,0.9-3.2,2-4.7,3.1c-1.1,0.8-1.8,0.9-2.3,0.3c-0.6-0.7-0.4-1.4,0.7-2.3
	c0.8-0.6,1.6-1.2,2.4-1.8c0.4-0.3,0.8-0.5,1.4-0.9C10.9,12.4,2.1,21.4,2.8,33.1c0.7,11.9,10.6,19,17.4,19.6c-1.3-1-2.8-2-4.1-3.2
	c-8.7-7.7-10.3-21.1-3.9-30.8c0.6-0.9,1.3-1.1,2-0.6c0.7,0.5,0.8,1.2,0.2,2.1c-0.6,1-1.2,1.9-1.6,2.9c-4,9.1-1.6,19.2,6.1,25.4
	C21.8,50.8,25.1,52.3,28.7,52.8z M45.4,52.8C37.6,48,33.2,41.1,33.2,31.9c0-9.1,4.3-16,12.2-21c-9.1,1.3-17.8,9.6-17.8,21
	C27.6,43.1,36.2,51.7,45.4,52.8z M37.1,10.9c-9.7,1.4-19,10.8-17.7,23.2c0.5,4.7,2.4,8.8,5.6,12.3c3.4,3.6,9.3,6.7,11.8,6.3
	c-7.6-4.9-11.9-11.7-11.9-20.9C25,22.7,29.3,15.9,37.1,10.9z M68.4,52.1c0-0.1,0.1-0.2,0.1-0.3C61.7,46.9,58,40.3,58,31.9
	c0-8.4,3.7-15,10.5-20.1c-0.6-0.1-1.2-0.2-1.7-0.1C58.2,14.6,52.3,22.9,52.4,32c0.1,9.2,5.9,17.3,14.4,20
	C67.3,52.2,67.8,52.1,68.4,52.1z M73.6,49.2c-4.8-4.8-7.4-10.6-7.4-17.3c0-6.7,2.5-12.5,7.4-17.3c-0.4-0.3-0.7-0.4-0.9-0.7
	c-0.7-0.7-1.4-0.6-2.2,0c-12.9,8.4-13.2,26.9-0.6,35.7c1.6,1.1,1.6,1.1,3.3,0C73.3,49.5,73.4,49.4,73.6,49.2z M75.8,16.2
	c-9.8,9.1-8.5,24,0,31.2c0.1-0.1,0.3-0.2,0.4-0.4c0.4-0.5,0.8-1,1.3-1.4c0.6-0.6,0.6-1.1,0.2-1.8c-2.1-3.4-3.1-7-3.2-11
	c-0.2-4.7,0.9-9.1,3.3-13.2c0.2-0.3,0.3-0.9,0.1-1.1C77.3,17.8,76.5,17,75.8,16.2z M79.8,21.5c-3.9,6.3-3.5,15.3,0,20.7
	C83.4,36.5,83.6,27.7,79.8,21.5z M24.7,7.8c12.1,0,24,0,36,0c-0.8-1.5-1.9-2.1-3.5-2.1c-5.9,0-11.7,0-17.6,0c-3.9,0-7.8,0-11.6,0
	C26.5,5.8,25.4,6.4,24.7,7.8z"/>
</svg>
