<?xml version="1.0" encoding="utf-8"?>
<!-- Generator: Adobe Illustrator 24.1.3, SVG Export Plug-In . SVG Version: 6.00 Build 0)  -->
<svg version="1.1" id="Capa_1" xmlns="http://www.w3.org/2000/svg" xmlns:xlink="http://www.w3.org/1999/xlink" x="0px" y="0px"
	 viewBox="0 0 101.6 145.4" style="enable-background:new 0 0 101.6 145.4;" xml:space="preserve">
<style type="text/css">
	.st0{fill:#F9B208;}
	.st1{fill:#E30613;}
	.st2{fill:#FFFFFF;}
	.st3{fill:#020203;}
</style>
<path class="st0" d="M101.6,143.5c0-19.9-10.6-22-14.1-23.6c-1.8-0.7-4-1.1-6.9-1.3c-19-1.5-37.9-3.5-56.8-5.4
	c-18.5-1.9-23.5-5.3-23.7-16.5C0,85.3,0,89.9,0.1,78.5v-6.7C0,60.3,0,64.9,0.1,53.4C0.3,42.3,5.3,38.9,23.8,37
	c18.9-1.9,37.8-3.9,56.8-5.4c2.9-0.2,5.1-0.6,6.9-1.3c3.6-1.6,14.1-3.6,14.1-23.6V143.5z"/>
<path class="st1" d="M101.6,114c0,0-1.7-3.9-18.2-5.7c-13.3-1.8-16.6-4.6-16.8-14.2c-0.1-9.9-0.1-5,0-15v-7.9c-0.1-9.9-0.1-5,0-15
	c0.1-9.6,3.5-12.4,16.8-14.2c16.5-1.8,18.2-5.7,18.2-5.7V114z"/>
<g>
	<g>
		<path class="st2" d="M78.1,60.6h4.1c0.3,0,0.5-0.1,0.7-0.2c0.1-0.1,0.2-0.4,0.2-0.7v-3.1c0-2.8,1.3-4.2,3.9-4.2H92
			c2.6,0,3.9,1.5,3.9,4.4v4.3c0,3-1.3,4.4-3.9,4.4h-2.9v-5h2.2c0.6,0,0.9-0.3,0.9-1v-1.2c0-0.6-0.3-1-0.9-1h-3.9
			c-0.3,0-0.5,0.1-0.7,0.2c-0.1,0.1-0.2,0.4-0.2,0.7v3c0,1.5-0.3,2.6-1,3.2c-0.6,0.7-1.6,1-2.9,1h-5.3c-2.6,0-3.9-1.5-3.9-4.4V57
			c0-3,1.3-4.5,3.9-4.5h2.9v5h-2.2c-0.6,0-0.9,0.3-0.9,1v1.2C77.2,60.3,77.5,60.6,78.1,60.6z"/>
		<path class="st2" d="M95.9,72.8v4.7c0,3-1.3,4.4-3.9,4.4H77.4c-2.6,0-3.9-1.5-3.9-4.4v-4.7c0-3,1.3-4.5,3.9-4.5H92
			C94.6,68.3,95.9,69.8,95.9,72.8z M78.1,76.9h13.2c0.6,0,0.9-0.3,0.9-0.9v-1.7c0-0.6-0.3-1-0.9-1H78.1c-0.6,0-0.9,0.3-0.9,1V76
			C77.2,76.6,77.5,76.9,78.1,76.9z"/>
		<path class="st2" d="M78.1,92.7h4.1c0.3,0,0.5-0.1,0.7-0.2c0.1-0.1,0.2-0.4,0.2-0.7v-3.1c0-2.8,1.3-4.2,3.9-4.2H92
			c2.6,0,3.9,1.5,3.9,4.4v4.3c0,3-1.3,4.4-3.9,4.4h-2.9v-5h2.2c0.6,0,0.9-0.3,0.9-1v-1.2c0-0.6-0.3-1-0.9-1h-3.9
			c-0.3,0-0.5,0.1-0.7,0.2c-0.1,0.1-0.2,0.4-0.2,0.7v3c0,1.5-0.3,2.6-1,3.2c-0.6,0.7-1.6,1-2.9,1h-5.3c-2.6,0-3.9-1.5-3.9-4.4v-4.3
			c0-3,1.3-4.5,3.9-4.5h2.9v5h-2.2c-0.6,0-0.9,0.3-0.9,1v1.2C77.2,92.4,77.5,92.7,78.1,92.7z"/>
	</g>
</g>
<path class="st3" d="M58.4,73.9c0-0.4,0-0.8,0-1.2c0-1.1-0.3-1.5-1.5-1.7c-1.2-0.2-2.4-0.4-3.6-0.6c-0.1,0-0.2,0-0.3,0
	c-0.3-0.1-0.6-0.4-0.8-0.7c-0.7-1.6-1.3-3.2-2-4.7c-0.2-0.5-0.2-0.8,0.1-1.2c0.8-1,1.4-2,2.2-3c0.6-0.8,0.5-1.5-0.1-2.1
	c-1.2-1.2-2.4-2.4-3.6-3.6c-0.7-0.7-1.4-0.7-2.1-0.2c-1,0.8-2.1,1.5-3,2.2c-0.4,0.3-0.7,0.3-1.2,0.1c-1.6-0.7-3.2-1.3-4.7-2
	c-0.3-0.1-0.6-0.5-0.7-0.8c-0.3-1.3-0.4-2.6-0.6-3.9c-0.2-1.1-0.6-1.4-1.7-1.4c-1.7,0-3.3,0-5,0c-1.1,0-1.5,0.4-1.7,1.4
	c-0.2,1.3-0.4,2.6-0.6,3.9c-0.1,0.3-0.4,0.6-0.7,0.8c-1.6,0.7-3.2,1.3-4.7,2c-0.4,0.2-0.7,0.3-1.1-0.1c-1-0.8-2.1-1.5-3.2-2.2
	c-0.7-0.5-1.3-0.4-1.9,0.1c-1.2,1.2-2.4,2.3-3.6,3.4c-0.8,0.8-0.9,1.4-0.2,2.3c0.7,1,1.5,2,2.2,2.9c0.3,0.3,0.3,0.6,0.1,1
	c-0.7,1.5-1.4,3.1-2,4.6c-0.1,0.4-0.3,0.6-0.5,0.8c-0.1,0.1-0.3,0.1-0.5,0.1c-1.2,0.2-2.5,0.4-3.7,0.6c-1.2,0.2-1.5,0.6-1.6,1.8
	c0,1.2,0,2.4,0,3.7c0,0.4,0,0.8,0,1.2c0,1.1,0.3,1.5,1.5,1.7c1.2,0.2,2.4,0.4,3.6,0.6c0.1,0,0.2,0,0.3,0c0.3,0.1,0.6,0.4,0.8,0.7
	c0.7,1.6,1.3,3.2,2,4.7c0.2,0.5,0.2,0.8-0.1,1.2c-0.8,1-1.4,2-2.2,3c-0.6,0.8-0.5,1.5,0.1,2.1c1.2,1.2,2.4,2.4,3.6,3.6
	c0.7,0.7,1.4,0.7,2.1,0.2c1-0.8,2.1-1.5,3-2.2c0.4-0.3,0.7-0.3,1.2-0.1c1.6,0.7,3.2,1.3,4.7,2c0.3,0.1,0.6,0.5,0.7,0.8
	c0.3,1.3,0.4,2.6,0.6,3.9c0.2,1.1,0.6,1.4,1.7,1.4c1.7,0,3.3,0,5,0c1.1,0,1.5-0.4,1.7-1.4c0.2-1.3,0.4-2.6,0.6-3.9
	c0.1-0.3,0.4-0.6,0.7-0.8c1.6-0.7,3.2-1.3,4.7-2c0.4-0.2,0.7-0.3,1.1,0.1c1,0.8,2.1,1.5,3.2,2.2c0.7,0.5,1.3,0.4,1.9-0.1
	c1.2-1.2,2.4-2.3,3.6-3.4c0.8-0.8,0.9-1.4,0.2-2.3c-0.7-1-1.5-2-2.2-2.9c-0.3-0.3-0.3-0.6-0.1-1c0.7-1.5,1.4-3.1,2-4.6
	c0.1-0.4,0.3-0.6,0.5-0.8c0.1-0.1,0.3-0.1,0.5-0.1c1.2-0.2,2.5-0.4,3.7-0.6c1.2-0.2,1.5-0.6,1.6-1.8C58.4,76.3,58.4,75.1,58.4,73.9z
	"/>
<g>
	<g>
		<g>
			<g>
				<path class="st0" d="M32.2,62.9L32.2,62.9c-6.7,0-12.2,5.5-12.2,12.2c0,2.7,0.9,5.2,2.3,7.2l-1.5,4.5l4.7-1.5
					c1.9,1.3,4.2,2,6.7,2c6.7,0,12.2-5.5,12.2-12.2C44.4,68.4,38.9,62.9,32.2,62.9z M39.3,80.1c-0.3,0.8-1.5,1.5-2.4,1.7
					c-0.6,0.1-1.5,0.2-4.3-0.9c-3.6-1.5-5.9-5.1-6.1-5.4c-0.2-0.2-1.5-1.9-1.5-3.7c0-1.8,0.9-2.6,1.3-3c0.3-0.3,0.8-0.4,1.3-0.4
					c0.2,0,0.3,0,0.4,0c0.4,0,0.5,0,0.8,0.6c0.3,0.7,1,2.5,1.1,2.6c0.1,0.2,0.2,0.4,0.1,0.7c-0.1,0.2-0.2,0.4-0.4,0.6
					s-0.4,0.4-0.5,0.6c-0.2,0.2-0.4,0.4-0.1,0.8c0.2,0.4,0.9,1.5,2,2.5c1.4,1.2,2.5,1.6,2.9,1.8c0.3,0.1,0.6,0.1,0.9-0.1
					c0.3-0.3,0.6-0.8,1-1.3c0.2-0.3,0.6-0.4,0.9-0.3c0.3,0.1,2.1,1,2.4,1.2c0.4,0.2,0.6,0.3,0.7,0.4C39.6,78.6,39.6,79.3,39.3,80.1z
					"/>
			</g>
		</g>
	</g>
</g>
</svg>
